%TF.GenerationSoftware,KiCad,Pcbnew,(5.1.10)-1*%
%TF.CreationDate,2022-04-21T20:00:25-04:00*%
%TF.ProjectId,eargenpanel,65617267-656e-4706-916e-656c2e6b6963,rev?*%
%TF.SameCoordinates,Original*%
%TF.FileFunction,Legend,Top*%
%TF.FilePolarity,Positive*%
%FSLAX46Y46*%
G04 Gerber Fmt 4.6, Leading zero omitted, Abs format (unit mm)*
G04 Created by KiCad (PCBNEW (5.1.10)-1) date 2022-04-21 20:00:25*
%MOMM*%
%LPD*%
G01*
G04 APERTURE LIST*
%ADD10C,0.400000*%
%ADD11C,0.500000*%
%ADD12C,1.000000*%
%ADD13C,0.800000*%
%ADD14C,0.180000*%
G04 APERTURE END LIST*
D10*
X74345238Y-204440476D02*
X74345238Y-197940476D01*
X75773809Y-204440476D02*
X74702380Y-200726190D01*
X75773809Y-197940476D02*
X74345238Y-201654761D01*
X78154761Y-204440476D02*
X76726190Y-204440476D01*
X77440476Y-204440476D02*
X77440476Y-197940476D01*
X77202380Y-198869047D01*
X76964285Y-199488095D01*
X76726190Y-199797619D01*
X80535714Y-204440476D02*
X79107142Y-204440476D01*
X79821428Y-204440476D02*
X79821428Y-197940476D01*
X79583333Y-198869047D01*
X79345238Y-199488095D01*
X79107142Y-199797619D01*
X82083333Y-197940476D02*
X82321428Y-197940476D01*
X82559523Y-198250000D01*
X82678571Y-198559523D01*
X82797619Y-199178571D01*
X82916666Y-200416666D01*
X82916666Y-201964285D01*
X82797619Y-203202380D01*
X82678571Y-203821428D01*
X82559523Y-204130952D01*
X82321428Y-204440476D01*
X82083333Y-204440476D01*
X81845238Y-204130952D01*
X81726190Y-203821428D01*
X81607142Y-203202380D01*
X81488095Y-201964285D01*
X81488095Y-200416666D01*
X81607142Y-199178571D01*
X81726190Y-198559523D01*
X81845238Y-198250000D01*
X82083333Y-197940476D01*
X85892857Y-201035714D02*
X86726190Y-201035714D01*
X87083333Y-204440476D02*
X85892857Y-204440476D01*
X85892857Y-197940476D01*
X87083333Y-197940476D01*
X88035714Y-202583333D02*
X89226190Y-202583333D01*
X87797619Y-204440476D02*
X88630952Y-197940476D01*
X89464285Y-204440476D01*
X91726190Y-204440476D02*
X90892857Y-201345238D01*
X90297619Y-204440476D02*
X90297619Y-197940476D01*
X91250000Y-197940476D01*
X91488095Y-198250000D01*
X91607142Y-198559523D01*
X91726190Y-199178571D01*
X91726190Y-200107142D01*
X91607142Y-200726190D01*
X91488095Y-201035714D01*
X91250000Y-201345238D01*
X90297619Y-201345238D01*
X94107142Y-198250000D02*
X93869047Y-197940476D01*
X93511904Y-197940476D01*
X93154761Y-198250000D01*
X92916666Y-198869047D01*
X92797619Y-199488095D01*
X92678571Y-200726190D01*
X92678571Y-201654761D01*
X92797619Y-202892857D01*
X92916666Y-203511904D01*
X93154761Y-204130952D01*
X93511904Y-204440476D01*
X93750000Y-204440476D01*
X94107142Y-204130952D01*
X94226190Y-203821428D01*
X94226190Y-201654761D01*
X93750000Y-201654761D01*
X95297619Y-201035714D02*
X96130952Y-201035714D01*
X96488095Y-204440476D02*
X95297619Y-204440476D01*
X95297619Y-197940476D01*
X96488095Y-197940476D01*
X97559523Y-204440476D02*
X97559523Y-197940476D01*
X98988095Y-204440476D01*
X98988095Y-197940476D01*
X100059523Y-204130952D02*
X100416666Y-204440476D01*
X101011904Y-204440476D01*
X101250000Y-204130952D01*
X101369047Y-203821428D01*
X101488095Y-203202380D01*
X101488095Y-202583333D01*
X101369047Y-201964285D01*
X101250000Y-201654761D01*
X101011904Y-201345238D01*
X100535714Y-201035714D01*
X100297619Y-200726190D01*
X100178571Y-200416666D01*
X100059523Y-199797619D01*
X100059523Y-199178571D01*
X100178571Y-198559523D01*
X100297619Y-198250000D01*
X100535714Y-197940476D01*
X101130952Y-197940476D01*
X101488095Y-198250000D01*
X102559523Y-204440476D02*
X102559523Y-197940476D01*
X103511904Y-197940476D01*
X103750000Y-198250000D01*
X103869047Y-198559523D01*
X103988095Y-199178571D01*
X103988095Y-200107142D01*
X103869047Y-200726190D01*
X103750000Y-201035714D01*
X103511904Y-201345238D01*
X102559523Y-201345238D01*
X106250000Y-204440476D02*
X105059523Y-204440476D01*
X105059523Y-197940476D01*
X107083333Y-204440476D02*
X107083333Y-197940476D01*
X107916666Y-197940476D02*
X109345238Y-197940476D01*
X108630952Y-204440476D02*
X108630952Y-197940476D01*
X109821428Y-197940476D02*
X111250000Y-197940476D01*
X110535714Y-204440476D02*
X110535714Y-197940476D01*
X112083333Y-201035714D02*
X112916666Y-201035714D01*
X113273809Y-204440476D02*
X112083333Y-204440476D01*
X112083333Y-197940476D01*
X113273809Y-197940476D01*
X115773809Y-204440476D02*
X114940476Y-201345238D01*
X114345238Y-204440476D02*
X114345238Y-197940476D01*
X115297619Y-197940476D01*
X115535714Y-198250000D01*
X115654761Y-198559523D01*
X115773809Y-199178571D01*
X115773809Y-200107142D01*
X115654761Y-200726190D01*
X115535714Y-201035714D01*
X115297619Y-201345238D01*
X114345238Y-201345238D01*
D11*
X90018898Y-46738095D02*
X90542708Y-47119047D01*
X91495089Y-47119047D01*
X91923660Y-46738095D01*
X92161755Y-46357142D01*
X92447470Y-45595238D01*
X92542708Y-44833333D01*
X92447470Y-44071428D01*
X92304613Y-43690476D01*
X91971279Y-43309523D01*
X91256994Y-42928571D01*
X90923660Y-42547619D01*
X90780803Y-42166666D01*
X90685565Y-41404761D01*
X90780803Y-40642857D01*
X91066517Y-39880952D01*
X91304613Y-39500000D01*
X91733184Y-39119047D01*
X92685565Y-39119047D01*
X93209375Y-39500000D01*
X95209375Y-43309523D02*
X94733184Y-47119047D01*
X94399851Y-39119047D02*
X95209375Y-43309523D01*
X97066517Y-39119047D01*
X97256994Y-46738095D02*
X97780803Y-47119047D01*
X98733184Y-47119047D01*
X99161755Y-46738095D01*
X99399851Y-46357142D01*
X99685565Y-45595238D01*
X99780803Y-44833333D01*
X99685565Y-44071428D01*
X99542708Y-43690476D01*
X99209375Y-43309523D01*
X98495089Y-42928571D01*
X98161755Y-42547619D01*
X98018898Y-42166666D01*
X97923660Y-41404761D01*
X98018898Y-40642857D01*
X98304613Y-39880952D01*
X98542708Y-39500000D01*
X98971279Y-39119047D01*
X99923660Y-39119047D01*
X100447470Y-39500000D01*
X101637946Y-39119047D02*
X103923660Y-39119047D01*
X101780803Y-47119047D02*
X102780803Y-39119047D01*
X104780803Y-42928571D02*
X106114136Y-42928571D01*
X106161755Y-47119047D02*
X104256994Y-47119047D01*
X105256994Y-39119047D01*
X107161755Y-39119047D01*
X107876041Y-47119047D02*
X108876041Y-39119047D01*
X109495089Y-44833333D01*
X111542708Y-39119047D01*
X110542708Y-47119047D01*
X112304613Y-46738095D02*
X112828422Y-47119047D01*
X113780803Y-47119047D01*
X114209375Y-46738095D01*
X114447470Y-46357142D01*
X114733184Y-45595238D01*
X114828422Y-44833333D01*
X114733184Y-44071428D01*
X114590327Y-43690476D01*
X114256994Y-43309523D01*
X113542708Y-42928571D01*
X113209375Y-42547619D01*
X113066517Y-42166666D01*
X112971279Y-41404761D01*
X113066517Y-40642857D01*
X113352232Y-39880952D01*
X113590327Y-39500000D01*
X114018898Y-39119047D01*
X114971279Y-39119047D01*
X115495089Y-39500000D01*
D12*
X75936607Y-34142857D02*
X77936607Y-34142857D01*
X78008035Y-40428571D02*
X75150892Y-40428571D01*
X76650892Y-28428571D01*
X79508035Y-28428571D01*
X83436607Y-40428571D02*
X80579464Y-40428571D01*
X82079464Y-28428571D01*
X89008035Y-39285714D02*
X88650892Y-39857142D01*
X87722321Y-40428571D01*
X87150892Y-40428571D01*
X86365178Y-39857142D01*
X85936607Y-38714285D01*
X85793750Y-37571428D01*
X85793750Y-35285714D01*
X86008035Y-33571428D01*
X86579464Y-31285714D01*
X87008035Y-30142857D01*
X87722321Y-29000000D01*
X88650892Y-28428571D01*
X89222321Y-28428571D01*
X90008035Y-29000000D01*
X90222321Y-29571428D01*
D13*
X100000000Y-186000000D02*
X96500000Y-187500000D01*
X100000000Y-186000000D02*
X96500000Y-184500000D01*
X100000000Y-150000000D02*
X96500000Y-151500000D01*
X100000000Y-150000000D02*
X96500000Y-148500000D01*
X100000000Y-114000000D02*
X96500000Y-115500000D01*
X100000000Y-114000000D02*
X96500000Y-112500000D01*
X100000000Y-78000000D02*
X96500000Y-79500000D01*
X100000000Y-78000000D02*
X96500000Y-76500000D01*
D14*
X79500000Y-130000000D02*
X79500000Y-156000000D01*
X79500000Y-156000000D02*
X78500000Y-154000000D01*
X79500000Y-156000000D02*
X80500000Y-154000000D01*
X79500000Y-94000000D02*
X79500000Y-120000000D01*
X79500000Y-120000000D02*
X78500000Y-118000000D01*
X79500000Y-120000000D02*
X80500000Y-118000000D01*
X79500000Y-84000000D02*
X78500000Y-82000000D01*
X79500000Y-84000000D02*
X80500000Y-82000000D01*
X79500000Y-58000000D02*
X79500000Y-84000000D01*
D13*
X104500000Y-186000000D02*
X101000000Y-187500000D01*
X104500000Y-186000000D02*
X101000000Y-184500000D01*
X94500000Y-186000000D02*
X104500000Y-186000000D01*
X94500000Y-179000000D02*
X94500000Y-186000000D01*
X104500000Y-150000000D02*
X101000000Y-151500000D01*
X104500000Y-150000000D02*
X101000000Y-148500000D01*
X94500000Y-150000000D02*
X104500000Y-150000000D01*
X94500000Y-143000000D02*
X94500000Y-150000000D01*
X104500000Y-114000000D02*
X101000000Y-115500000D01*
X104500000Y-114000000D02*
X101000000Y-112500000D01*
X94500000Y-114000000D02*
X104500000Y-114000000D01*
X94500000Y-107000000D02*
X94500000Y-114000000D01*
D14*
X94500000Y-161000000D02*
X94500000Y-168500000D01*
X84500000Y-161000000D02*
X94500000Y-161000000D01*
X94500000Y-168500000D02*
X95500000Y-166500000D01*
X94500000Y-168500000D02*
X93500000Y-166500000D01*
X94500000Y-125000000D02*
X94500000Y-132500000D01*
X84500000Y-125000000D02*
X94500000Y-125000000D01*
X94500000Y-132500000D02*
X95500000Y-130500000D01*
X94500000Y-132500000D02*
X93500000Y-130500000D01*
X94500000Y-89000000D02*
X94500000Y-96500000D01*
X84500000Y-89000000D02*
X94500000Y-89000000D01*
X94500000Y-96500000D02*
X95500000Y-94500000D01*
X94500000Y-96500000D02*
X93500000Y-94500000D01*
D13*
X104500000Y-78000000D02*
X101000000Y-76500000D01*
X104500000Y-78000000D02*
X101000000Y-79500000D01*
X94500000Y-78000000D02*
X104500000Y-78000000D01*
X94500000Y-71000000D02*
X94500000Y-78000000D01*
D14*
X94500000Y-60500000D02*
X93500000Y-58500000D01*
X94500000Y-60500000D02*
X95500000Y-58500000D01*
X94500000Y-53000000D02*
X94500000Y-60500000D01*
X84500000Y-53000000D02*
X94500000Y-53000000D01*
M02*
