%TF.GenerationSoftware,KiCad,Pcbnew,(5.1.10)-1*%
%TF.CreationDate,2022-04-21T20:11:48-04:00*%
%TF.ProjectId,ELC Eargensplitter,454c4320-4561-4726-9765-6e73706c6974,rev?*%
%TF.SameCoordinates,Original*%
%TF.FileFunction,Legend,Top*%
%TF.FilePolarity,Positive*%
%FSLAX46Y46*%
G04 Gerber Fmt 4.6, Leading zero omitted, Abs format (unit mm)*
G04 Created by KiCad (PCBNEW (5.1.10)-1) date 2022-04-21 20:11:48*
%MOMM*%
%LPD*%
G01*
G04 APERTURE LIST*
%ADD10C,0.250000*%
%ADD11C,0.500000*%
%ADD12C,0.120000*%
%ADD13C,0.300000*%
%ADD14C,0.100000*%
%ADD15C,0.400000*%
%ADD16C,0.150000*%
G04 APERTURE END LIST*
D10*
X108477187Y-130984285D02*
X109227187Y-124984285D01*
X110191473Y-130984285D02*
X109334330Y-127555714D01*
X110941473Y-124984285D02*
X108798616Y-128412857D01*
X113048616Y-130984285D02*
X111334330Y-130984285D01*
X112191473Y-130984285D02*
X112941473Y-124984285D01*
X112548616Y-125841428D01*
X112191473Y-126412857D01*
X111870044Y-126698571D01*
X115905758Y-130984285D02*
X114191473Y-130984285D01*
X115048616Y-130984285D02*
X115798616Y-124984285D01*
X115405758Y-125841428D01*
X115048616Y-126412857D01*
X114727187Y-126698571D01*
X118512901Y-124984285D02*
X118798616Y-124984285D01*
X119048616Y-125270000D01*
X119155758Y-125555714D01*
X119227187Y-126127142D01*
X119227187Y-127270000D01*
X119048616Y-128698571D01*
X118762901Y-129841428D01*
X118548616Y-130412857D01*
X118370044Y-130698571D01*
X118048616Y-130984285D01*
X117762901Y-130984285D01*
X117512901Y-130698571D01*
X117405758Y-130412857D01*
X117334330Y-129841428D01*
X117334330Y-128698571D01*
X117512901Y-127270000D01*
X117798616Y-126127142D01*
X118012901Y-125555714D01*
X118191473Y-125270000D01*
X118512901Y-124984285D01*
X119262901Y-131555714D02*
X121548616Y-131555714D01*
X123512901Y-130698571D02*
X123191473Y-130984285D01*
X122620044Y-130984285D01*
X122370044Y-130698571D01*
X122298616Y-130127142D01*
X122584330Y-127841428D01*
X122798616Y-127270000D01*
X123120044Y-126984285D01*
X123691473Y-126984285D01*
X123941473Y-127270000D01*
X124012901Y-127841428D01*
X123941473Y-128412857D01*
X122441473Y-128984285D01*
X126191473Y-130984285D02*
X126584330Y-127841428D01*
X126512901Y-127270000D01*
X126262901Y-126984285D01*
X125691473Y-126984285D01*
X125370044Y-127270000D01*
X126227187Y-130698571D02*
X125905758Y-130984285D01*
X125191473Y-130984285D01*
X124941473Y-130698571D01*
X124870044Y-130127142D01*
X124941473Y-129555714D01*
X125155758Y-128984285D01*
X125477187Y-128698571D01*
X126191473Y-128698571D01*
X126512901Y-128412857D01*
X127620044Y-130984285D02*
X128120044Y-126984285D01*
X127977187Y-128127142D02*
X128191473Y-127555714D01*
X128370044Y-127270000D01*
X128691473Y-126984285D01*
X128977187Y-126984285D01*
X131262901Y-126984285D02*
X130655758Y-131841428D01*
X130441473Y-132412857D01*
X130262901Y-132698571D01*
X129941473Y-132984285D01*
X129512901Y-132984285D01*
X129262901Y-132698571D01*
X130798616Y-130698571D02*
X130477187Y-130984285D01*
X129905758Y-130984285D01*
X129655758Y-130698571D01*
X129548616Y-130412857D01*
X129477187Y-129841428D01*
X129691473Y-128127142D01*
X129905758Y-127555714D01*
X130084330Y-127270000D01*
X130405758Y-126984285D01*
X130977187Y-126984285D01*
X131227187Y-127270000D01*
X133370044Y-130698571D02*
X133048616Y-130984285D01*
X132477187Y-130984285D01*
X132227187Y-130698571D01*
X132155758Y-130127142D01*
X132441473Y-127841428D01*
X132655758Y-127270000D01*
X132977187Y-126984285D01*
X133548616Y-126984285D01*
X133798616Y-127270000D01*
X133870044Y-127841428D01*
X133798616Y-128412857D01*
X132298616Y-128984285D01*
X135262901Y-126984285D02*
X134762901Y-130984285D01*
X135191473Y-127555714D02*
X135370044Y-127270000D01*
X135691473Y-126984285D01*
X136120044Y-126984285D01*
X136370044Y-127270000D01*
X136441473Y-127841428D01*
X136048616Y-130984285D01*
X137370044Y-130698571D02*
X137620044Y-130984285D01*
X138191473Y-130984285D01*
X138512901Y-130698571D01*
X138727187Y-130127142D01*
X138762901Y-129841428D01*
X138691473Y-129270000D01*
X138441473Y-128984285D01*
X138012901Y-128984285D01*
X137762901Y-128698571D01*
X137691473Y-128127142D01*
X137727187Y-127841428D01*
X137941473Y-127270000D01*
X138262901Y-126984285D01*
X138691473Y-126984285D01*
X138941473Y-127270000D01*
X140405758Y-126984285D02*
X139655758Y-132984285D01*
X140370044Y-127270000D02*
X140691473Y-126984285D01*
X141262901Y-126984285D01*
X141512901Y-127270000D01*
X141620044Y-127555714D01*
X141691473Y-128127142D01*
X141477187Y-129841428D01*
X141262901Y-130412857D01*
X141084330Y-130698571D01*
X140762901Y-130984285D01*
X140191473Y-130984285D01*
X139941473Y-130698571D01*
X143048616Y-130984285D02*
X142798616Y-130698571D01*
X142727187Y-130127142D01*
X143370044Y-124984285D01*
X144191473Y-130984285D02*
X144691473Y-126984285D01*
X144941473Y-124984285D02*
X144762901Y-125270000D01*
X144870044Y-125555714D01*
X145048616Y-125270000D01*
X144941473Y-124984285D01*
X144870044Y-125555714D01*
X145691473Y-126984285D02*
X146834330Y-126984285D01*
X146370044Y-124984285D02*
X145727187Y-130127142D01*
X145798616Y-130698571D01*
X146048616Y-130984285D01*
X146334330Y-130984285D01*
X147405758Y-126984285D02*
X148548616Y-126984285D01*
X148084330Y-124984285D02*
X147441473Y-130127142D01*
X147512901Y-130698571D01*
X147762901Y-130984285D01*
X148048616Y-130984285D01*
X150227187Y-130698571D02*
X149905758Y-130984285D01*
X149334330Y-130984285D01*
X149084330Y-130698571D01*
X149012901Y-130127142D01*
X149298616Y-127841428D01*
X149512901Y-127270000D01*
X149834330Y-126984285D01*
X150405758Y-126984285D01*
X150655758Y-127270000D01*
X150727187Y-127841428D01*
X150655758Y-128412857D01*
X149155758Y-128984285D01*
X151620044Y-130984285D02*
X152120044Y-126984285D01*
X151977187Y-128127142D02*
X152191473Y-127555714D01*
X152370044Y-127270000D01*
X152691473Y-126984285D01*
X152977187Y-126984285D01*
D11*
X103923184Y-118300571D02*
X105256517Y-118300571D01*
X105304136Y-122491047D02*
X103399375Y-122491047D01*
X104399375Y-114491047D01*
X106304136Y-114491047D01*
X108923184Y-122491047D02*
X107018422Y-122491047D01*
X108018422Y-114491047D01*
X112637470Y-121729142D02*
X112399375Y-122110095D01*
X111780327Y-122491047D01*
X111399375Y-122491047D01*
X110875565Y-122110095D01*
X110589851Y-121348190D01*
X110494613Y-120586285D01*
X110494613Y-119062476D01*
X110637470Y-117919619D01*
X111018422Y-116395809D01*
X111304136Y-115633904D01*
X111780327Y-114872000D01*
X112399375Y-114491047D01*
X112780327Y-114491047D01*
X113304136Y-114872000D01*
X113446994Y-115252952D01*
X117161279Y-122110095D02*
X117685089Y-122491047D01*
X118637470Y-122491047D01*
X119066041Y-122110095D01*
X119304136Y-121729142D01*
X119589851Y-120967238D01*
X119685089Y-120205333D01*
X119589851Y-119443428D01*
X119446994Y-119062476D01*
X119113660Y-118681523D01*
X118399375Y-118300571D01*
X118066041Y-117919619D01*
X117923184Y-117538666D01*
X117827946Y-116776761D01*
X117923184Y-116014857D01*
X118208898Y-115252952D01*
X118446994Y-114872000D01*
X118875565Y-114491047D01*
X119827946Y-114491047D01*
X120351755Y-114872000D01*
X122351755Y-118681523D02*
X121875565Y-122491047D01*
X121542232Y-114491047D02*
X122351755Y-118681523D01*
X124208898Y-114491047D01*
X124399375Y-122110095D02*
X124923184Y-122491047D01*
X125875565Y-122491047D01*
X126304136Y-122110095D01*
X126542232Y-121729142D01*
X126827946Y-120967238D01*
X126923184Y-120205333D01*
X126827946Y-119443428D01*
X126685089Y-119062476D01*
X126351755Y-118681523D01*
X125637470Y-118300571D01*
X125304136Y-117919619D01*
X125161279Y-117538666D01*
X125066041Y-116776761D01*
X125161279Y-116014857D01*
X125446994Y-115252952D01*
X125685089Y-114872000D01*
X126113660Y-114491047D01*
X127066041Y-114491047D01*
X127589851Y-114872000D01*
X128780327Y-114491047D02*
X131066041Y-114491047D01*
X128923184Y-122491047D02*
X129923184Y-114491047D01*
X131923184Y-118300571D02*
X133256517Y-118300571D01*
X133304136Y-122491047D02*
X131399375Y-122491047D01*
X132399375Y-114491047D01*
X134304136Y-114491047D01*
X135018422Y-122491047D02*
X136018422Y-114491047D01*
X136637470Y-120205333D01*
X138685089Y-114491047D01*
X137685089Y-122491047D01*
X139446994Y-122110095D02*
X139970803Y-122491047D01*
X140923184Y-122491047D01*
X141351755Y-122110095D01*
X141589851Y-121729142D01*
X141875565Y-120967238D01*
X141970803Y-120205333D01*
X141875565Y-119443428D01*
X141732708Y-119062476D01*
X141399375Y-118681523D01*
X140685089Y-118300571D01*
X140351755Y-117919619D01*
X140208898Y-117538666D01*
X140113660Y-116776761D01*
X140208898Y-116014857D01*
X140494613Y-115252952D01*
X140732708Y-114872000D01*
X141161279Y-114491047D01*
X142113660Y-114491047D01*
X142637470Y-114872000D01*
D12*
X127762000Y-158242000D02*
X128270000Y-159004000D01*
X127254000Y-159004000D02*
X127762000Y-158242000D01*
X127762000Y-158242000D02*
X127762000Y-160528000D01*
X123698000Y-160528000D02*
X127762000Y-160528000D01*
X123698000Y-159004000D02*
X123698000Y-160528000D01*
X125476000Y-158242000D02*
X125476000Y-159004000D01*
X125476000Y-159004000D02*
X125476000Y-158242000D01*
X121920000Y-159004000D02*
X125476000Y-159004000D01*
X121920000Y-152654000D02*
X121920000Y-159004000D01*
X125476000Y-152654000D02*
X121920000Y-152654000D01*
X125476000Y-158496000D02*
X125476000Y-152654000D01*
X127762000Y-156718000D02*
X127762000Y-154432000D01*
D10*
X137160190Y-160036000D02*
X136969714Y-159940761D01*
X136684000Y-159940761D01*
X136398285Y-160036000D01*
X136207809Y-160226476D01*
X136112571Y-160416952D01*
X136017333Y-160797904D01*
X136017333Y-161083619D01*
X136112571Y-161464571D01*
X136207809Y-161655047D01*
X136398285Y-161845523D01*
X136684000Y-161940761D01*
X136874476Y-161940761D01*
X137160190Y-161845523D01*
X137255428Y-161750285D01*
X137255428Y-161083619D01*
X136874476Y-161083619D01*
X138112571Y-161940761D02*
X138112571Y-159940761D01*
X139255428Y-161940761D01*
X139255428Y-159940761D01*
X140207809Y-161940761D02*
X140207809Y-159940761D01*
X140684000Y-159940761D01*
X140969714Y-160036000D01*
X141160190Y-160226476D01*
X141255428Y-160416952D01*
X141350666Y-160797904D01*
X141350666Y-161083619D01*
X141255428Y-161464571D01*
X141160190Y-161655047D01*
X140969714Y-161845523D01*
X140684000Y-161940761D01*
X140207809Y-161940761D01*
D13*
X132842000Y-161036000D02*
X135890000Y-161036000D01*
X132842000Y-157988000D02*
X132842000Y-161036000D01*
D14*
G36*
X136652000Y-158242000D02*
G01*
X129032000Y-158242000D01*
X129032000Y-153162000D01*
X136652000Y-153162000D01*
X136652000Y-158242000D01*
G37*
X136652000Y-158242000D02*
X129032000Y-158242000D01*
X129032000Y-153162000D01*
X136652000Y-153162000D01*
X136652000Y-158242000D01*
D10*
X123840857Y-158598857D02*
X123840857Y-157456000D01*
X124602761Y-158027428D02*
X123078952Y-158027428D01*
X124602761Y-155956000D02*
X124602761Y-156813142D01*
X124602761Y-156384571D02*
X122602761Y-156384571D01*
X122888476Y-156527428D01*
X123078952Y-156670285D01*
X123174190Y-156813142D01*
X122793238Y-155384571D02*
X122698000Y-155313142D01*
X122602761Y-155170285D01*
X122602761Y-154813142D01*
X122698000Y-154670285D01*
X122793238Y-154598857D01*
X122983714Y-154527428D01*
X123174190Y-154527428D01*
X123459904Y-154598857D01*
X124602761Y-155456000D01*
X124602761Y-154527428D01*
X122602761Y-154098857D02*
X124602761Y-153598857D01*
X122602761Y-153098857D01*
D15*
X140462000Y-158242000D02*
X140462000Y-153162000D01*
D12*
%TO.C,J9*%
X126432000Y-154432000D02*
X126432000Y-153102000D01*
X126432000Y-153102000D02*
X127762000Y-153102000D01*
X126432000Y-155702000D02*
X129032000Y-155702000D01*
X129032000Y-155702000D02*
X129032000Y-153102000D01*
X129032000Y-153102000D02*
X139252000Y-153102000D01*
X139252000Y-158302000D02*
X139252000Y-153102000D01*
X126432000Y-158302000D02*
X139252000Y-158302000D01*
X126432000Y-158302000D02*
X126432000Y-155702000D01*
%TO.C,100n*%
X115216000Y-39982000D02*
X110376000Y-39982000D01*
X115216000Y-37742000D02*
X110376000Y-37742000D01*
X115216000Y-39982000D02*
X115216000Y-37742000D01*
X110376000Y-39982000D02*
X110376000Y-37742000D01*
%TO.C,10u*%
X122254000Y-40406000D02*
G75*
G03*
X122254000Y-40406000I-2620000J0D01*
G01*
X117054000Y-40406000D02*
X122214000Y-40406000D01*
X117054000Y-40366000D02*
X122214000Y-40366000D01*
X117055000Y-40326000D02*
X122213000Y-40326000D01*
X117056000Y-40286000D02*
X122212000Y-40286000D01*
X117058000Y-40246000D02*
X122210000Y-40246000D01*
X117061000Y-40206000D02*
X122207000Y-40206000D01*
X117065000Y-40166000D02*
X118594000Y-40166000D01*
X120674000Y-40166000D02*
X122203000Y-40166000D01*
X117069000Y-40126000D02*
X118594000Y-40126000D01*
X120674000Y-40126000D02*
X122199000Y-40126000D01*
X117073000Y-40086000D02*
X118594000Y-40086000D01*
X120674000Y-40086000D02*
X122195000Y-40086000D01*
X117078000Y-40046000D02*
X118594000Y-40046000D01*
X120674000Y-40046000D02*
X122190000Y-40046000D01*
X117084000Y-40006000D02*
X118594000Y-40006000D01*
X120674000Y-40006000D02*
X122184000Y-40006000D01*
X117091000Y-39966000D02*
X118594000Y-39966000D01*
X120674000Y-39966000D02*
X122177000Y-39966000D01*
X117098000Y-39926000D02*
X118594000Y-39926000D01*
X120674000Y-39926000D02*
X122170000Y-39926000D01*
X117106000Y-39886000D02*
X118594000Y-39886000D01*
X120674000Y-39886000D02*
X122162000Y-39886000D01*
X117114000Y-39846000D02*
X118594000Y-39846000D01*
X120674000Y-39846000D02*
X122154000Y-39846000D01*
X117123000Y-39806000D02*
X118594000Y-39806000D01*
X120674000Y-39806000D02*
X122145000Y-39806000D01*
X117133000Y-39766000D02*
X118594000Y-39766000D01*
X120674000Y-39766000D02*
X122135000Y-39766000D01*
X117143000Y-39726000D02*
X118594000Y-39726000D01*
X120674000Y-39726000D02*
X122125000Y-39726000D01*
X117154000Y-39685000D02*
X118594000Y-39685000D01*
X120674000Y-39685000D02*
X122114000Y-39685000D01*
X117166000Y-39645000D02*
X118594000Y-39645000D01*
X120674000Y-39645000D02*
X122102000Y-39645000D01*
X117179000Y-39605000D02*
X118594000Y-39605000D01*
X120674000Y-39605000D02*
X122089000Y-39605000D01*
X117192000Y-39565000D02*
X118594000Y-39565000D01*
X120674000Y-39565000D02*
X122076000Y-39565000D01*
X117206000Y-39525000D02*
X118594000Y-39525000D01*
X120674000Y-39525000D02*
X122062000Y-39525000D01*
X117220000Y-39485000D02*
X118594000Y-39485000D01*
X120674000Y-39485000D02*
X122048000Y-39485000D01*
X117236000Y-39445000D02*
X118594000Y-39445000D01*
X120674000Y-39445000D02*
X122032000Y-39445000D01*
X117252000Y-39405000D02*
X118594000Y-39405000D01*
X120674000Y-39405000D02*
X122016000Y-39405000D01*
X117269000Y-39365000D02*
X118594000Y-39365000D01*
X120674000Y-39365000D02*
X121999000Y-39365000D01*
X117286000Y-39325000D02*
X118594000Y-39325000D01*
X120674000Y-39325000D02*
X121982000Y-39325000D01*
X117305000Y-39285000D02*
X118594000Y-39285000D01*
X120674000Y-39285000D02*
X121963000Y-39285000D01*
X117324000Y-39245000D02*
X118594000Y-39245000D01*
X120674000Y-39245000D02*
X121944000Y-39245000D01*
X117344000Y-39205000D02*
X118594000Y-39205000D01*
X120674000Y-39205000D02*
X121924000Y-39205000D01*
X117366000Y-39165000D02*
X118594000Y-39165000D01*
X120674000Y-39165000D02*
X121902000Y-39165000D01*
X117387000Y-39125000D02*
X118594000Y-39125000D01*
X120674000Y-39125000D02*
X121881000Y-39125000D01*
X117410000Y-39085000D02*
X118594000Y-39085000D01*
X120674000Y-39085000D02*
X121858000Y-39085000D01*
X117434000Y-39045000D02*
X118594000Y-39045000D01*
X120674000Y-39045000D02*
X121834000Y-39045000D01*
X117459000Y-39005000D02*
X118594000Y-39005000D01*
X120674000Y-39005000D02*
X121809000Y-39005000D01*
X117485000Y-38965000D02*
X118594000Y-38965000D01*
X120674000Y-38965000D02*
X121783000Y-38965000D01*
X117512000Y-38925000D02*
X118594000Y-38925000D01*
X120674000Y-38925000D02*
X121756000Y-38925000D01*
X117539000Y-38885000D02*
X118594000Y-38885000D01*
X120674000Y-38885000D02*
X121729000Y-38885000D01*
X117569000Y-38845000D02*
X118594000Y-38845000D01*
X120674000Y-38845000D02*
X121699000Y-38845000D01*
X117599000Y-38805000D02*
X118594000Y-38805000D01*
X120674000Y-38805000D02*
X121669000Y-38805000D01*
X117630000Y-38765000D02*
X118594000Y-38765000D01*
X120674000Y-38765000D02*
X121638000Y-38765000D01*
X117663000Y-38725000D02*
X118594000Y-38725000D01*
X120674000Y-38725000D02*
X121605000Y-38725000D01*
X117697000Y-38685000D02*
X118594000Y-38685000D01*
X120674000Y-38685000D02*
X121571000Y-38685000D01*
X117733000Y-38645000D02*
X118594000Y-38645000D01*
X120674000Y-38645000D02*
X121535000Y-38645000D01*
X117770000Y-38605000D02*
X118594000Y-38605000D01*
X120674000Y-38605000D02*
X121498000Y-38605000D01*
X117808000Y-38565000D02*
X118594000Y-38565000D01*
X120674000Y-38565000D02*
X121460000Y-38565000D01*
X117849000Y-38525000D02*
X118594000Y-38525000D01*
X120674000Y-38525000D02*
X121419000Y-38525000D01*
X117891000Y-38485000D02*
X118594000Y-38485000D01*
X120674000Y-38485000D02*
X121377000Y-38485000D01*
X117935000Y-38445000D02*
X118594000Y-38445000D01*
X120674000Y-38445000D02*
X121333000Y-38445000D01*
X117981000Y-38405000D02*
X118594000Y-38405000D01*
X120674000Y-38405000D02*
X121287000Y-38405000D01*
X118029000Y-38365000D02*
X118594000Y-38365000D01*
X120674000Y-38365000D02*
X121239000Y-38365000D01*
X118080000Y-38325000D02*
X118594000Y-38325000D01*
X120674000Y-38325000D02*
X121188000Y-38325000D01*
X118134000Y-38285000D02*
X118594000Y-38285000D01*
X120674000Y-38285000D02*
X121134000Y-38285000D01*
X118191000Y-38245000D02*
X118594000Y-38245000D01*
X120674000Y-38245000D02*
X121077000Y-38245000D01*
X118251000Y-38205000D02*
X118594000Y-38205000D01*
X120674000Y-38205000D02*
X121017000Y-38205000D01*
X118315000Y-38165000D02*
X118594000Y-38165000D01*
X120674000Y-38165000D02*
X120953000Y-38165000D01*
X118383000Y-38125000D02*
X118594000Y-38125000D01*
X120674000Y-38125000D02*
X120885000Y-38125000D01*
X118456000Y-38085000D02*
X120812000Y-38085000D01*
X118536000Y-38045000D02*
X120732000Y-38045000D01*
X118623000Y-38005000D02*
X120645000Y-38005000D01*
X118719000Y-37965000D02*
X120549000Y-37965000D01*
X118829000Y-37925000D02*
X120439000Y-37925000D01*
X118957000Y-37885000D02*
X120311000Y-37885000D01*
X119116000Y-37845000D02*
X120152000Y-37845000D01*
X119350000Y-37805000D02*
X119918000Y-37805000D01*
X118159000Y-43210775D02*
X118159000Y-42710775D01*
X117909000Y-42960775D02*
X118409000Y-42960775D01*
%TO.C,100n*%
X115430000Y-64920000D02*
X115430000Y-67160000D01*
X110590000Y-64920000D02*
X110590000Y-67160000D01*
X110590000Y-67160000D02*
X115430000Y-67160000D01*
X110590000Y-64920000D02*
X115430000Y-64920000D01*
%TO.C,10u*%
X122000000Y-69870000D02*
G75*
G03*
X122000000Y-69870000I-2620000J0D01*
G01*
X116800000Y-69870000D02*
X121960000Y-69870000D01*
X116800000Y-69830000D02*
X121960000Y-69830000D01*
X116801000Y-69790000D02*
X121959000Y-69790000D01*
X116802000Y-69750000D02*
X121958000Y-69750000D01*
X116804000Y-69710000D02*
X121956000Y-69710000D01*
X116807000Y-69670000D02*
X121953000Y-69670000D01*
X116811000Y-69630000D02*
X118340000Y-69630000D01*
X120420000Y-69630000D02*
X121949000Y-69630000D01*
X116815000Y-69590000D02*
X118340000Y-69590000D01*
X120420000Y-69590000D02*
X121945000Y-69590000D01*
X116819000Y-69550000D02*
X118340000Y-69550000D01*
X120420000Y-69550000D02*
X121941000Y-69550000D01*
X116824000Y-69510000D02*
X118340000Y-69510000D01*
X120420000Y-69510000D02*
X121936000Y-69510000D01*
X116830000Y-69470000D02*
X118340000Y-69470000D01*
X120420000Y-69470000D02*
X121930000Y-69470000D01*
X116837000Y-69430000D02*
X118340000Y-69430000D01*
X120420000Y-69430000D02*
X121923000Y-69430000D01*
X116844000Y-69390000D02*
X118340000Y-69390000D01*
X120420000Y-69390000D02*
X121916000Y-69390000D01*
X116852000Y-69350000D02*
X118340000Y-69350000D01*
X120420000Y-69350000D02*
X121908000Y-69350000D01*
X116860000Y-69310000D02*
X118340000Y-69310000D01*
X120420000Y-69310000D02*
X121900000Y-69310000D01*
X116869000Y-69270000D02*
X118340000Y-69270000D01*
X120420000Y-69270000D02*
X121891000Y-69270000D01*
X116879000Y-69230000D02*
X118340000Y-69230000D01*
X120420000Y-69230000D02*
X121881000Y-69230000D01*
X116889000Y-69190000D02*
X118340000Y-69190000D01*
X120420000Y-69190000D02*
X121871000Y-69190000D01*
X116900000Y-69149000D02*
X118340000Y-69149000D01*
X120420000Y-69149000D02*
X121860000Y-69149000D01*
X116912000Y-69109000D02*
X118340000Y-69109000D01*
X120420000Y-69109000D02*
X121848000Y-69109000D01*
X116925000Y-69069000D02*
X118340000Y-69069000D01*
X120420000Y-69069000D02*
X121835000Y-69069000D01*
X116938000Y-69029000D02*
X118340000Y-69029000D01*
X120420000Y-69029000D02*
X121822000Y-69029000D01*
X116952000Y-68989000D02*
X118340000Y-68989000D01*
X120420000Y-68989000D02*
X121808000Y-68989000D01*
X116966000Y-68949000D02*
X118340000Y-68949000D01*
X120420000Y-68949000D02*
X121794000Y-68949000D01*
X116982000Y-68909000D02*
X118340000Y-68909000D01*
X120420000Y-68909000D02*
X121778000Y-68909000D01*
X116998000Y-68869000D02*
X118340000Y-68869000D01*
X120420000Y-68869000D02*
X121762000Y-68869000D01*
X117015000Y-68829000D02*
X118340000Y-68829000D01*
X120420000Y-68829000D02*
X121745000Y-68829000D01*
X117032000Y-68789000D02*
X118340000Y-68789000D01*
X120420000Y-68789000D02*
X121728000Y-68789000D01*
X117051000Y-68749000D02*
X118340000Y-68749000D01*
X120420000Y-68749000D02*
X121709000Y-68749000D01*
X117070000Y-68709000D02*
X118340000Y-68709000D01*
X120420000Y-68709000D02*
X121690000Y-68709000D01*
X117090000Y-68669000D02*
X118340000Y-68669000D01*
X120420000Y-68669000D02*
X121670000Y-68669000D01*
X117112000Y-68629000D02*
X118340000Y-68629000D01*
X120420000Y-68629000D02*
X121648000Y-68629000D01*
X117133000Y-68589000D02*
X118340000Y-68589000D01*
X120420000Y-68589000D02*
X121627000Y-68589000D01*
X117156000Y-68549000D02*
X118340000Y-68549000D01*
X120420000Y-68549000D02*
X121604000Y-68549000D01*
X117180000Y-68509000D02*
X118340000Y-68509000D01*
X120420000Y-68509000D02*
X121580000Y-68509000D01*
X117205000Y-68469000D02*
X118340000Y-68469000D01*
X120420000Y-68469000D02*
X121555000Y-68469000D01*
X117231000Y-68429000D02*
X118340000Y-68429000D01*
X120420000Y-68429000D02*
X121529000Y-68429000D01*
X117258000Y-68389000D02*
X118340000Y-68389000D01*
X120420000Y-68389000D02*
X121502000Y-68389000D01*
X117285000Y-68349000D02*
X118340000Y-68349000D01*
X120420000Y-68349000D02*
X121475000Y-68349000D01*
X117315000Y-68309000D02*
X118340000Y-68309000D01*
X120420000Y-68309000D02*
X121445000Y-68309000D01*
X117345000Y-68269000D02*
X118340000Y-68269000D01*
X120420000Y-68269000D02*
X121415000Y-68269000D01*
X117376000Y-68229000D02*
X118340000Y-68229000D01*
X120420000Y-68229000D02*
X121384000Y-68229000D01*
X117409000Y-68189000D02*
X118340000Y-68189000D01*
X120420000Y-68189000D02*
X121351000Y-68189000D01*
X117443000Y-68149000D02*
X118340000Y-68149000D01*
X120420000Y-68149000D02*
X121317000Y-68149000D01*
X117479000Y-68109000D02*
X118340000Y-68109000D01*
X120420000Y-68109000D02*
X121281000Y-68109000D01*
X117516000Y-68069000D02*
X118340000Y-68069000D01*
X120420000Y-68069000D02*
X121244000Y-68069000D01*
X117554000Y-68029000D02*
X118340000Y-68029000D01*
X120420000Y-68029000D02*
X121206000Y-68029000D01*
X117595000Y-67989000D02*
X118340000Y-67989000D01*
X120420000Y-67989000D02*
X121165000Y-67989000D01*
X117637000Y-67949000D02*
X118340000Y-67949000D01*
X120420000Y-67949000D02*
X121123000Y-67949000D01*
X117681000Y-67909000D02*
X118340000Y-67909000D01*
X120420000Y-67909000D02*
X121079000Y-67909000D01*
X117727000Y-67869000D02*
X118340000Y-67869000D01*
X120420000Y-67869000D02*
X121033000Y-67869000D01*
X117775000Y-67829000D02*
X118340000Y-67829000D01*
X120420000Y-67829000D02*
X120985000Y-67829000D01*
X117826000Y-67789000D02*
X118340000Y-67789000D01*
X120420000Y-67789000D02*
X120934000Y-67789000D01*
X117880000Y-67749000D02*
X118340000Y-67749000D01*
X120420000Y-67749000D02*
X120880000Y-67749000D01*
X117937000Y-67709000D02*
X118340000Y-67709000D01*
X120420000Y-67709000D02*
X120823000Y-67709000D01*
X117997000Y-67669000D02*
X118340000Y-67669000D01*
X120420000Y-67669000D02*
X120763000Y-67669000D01*
X118061000Y-67629000D02*
X118340000Y-67629000D01*
X120420000Y-67629000D02*
X120699000Y-67629000D01*
X118129000Y-67589000D02*
X118340000Y-67589000D01*
X120420000Y-67589000D02*
X120631000Y-67589000D01*
X118202000Y-67549000D02*
X120558000Y-67549000D01*
X118282000Y-67509000D02*
X120478000Y-67509000D01*
X118369000Y-67469000D02*
X120391000Y-67469000D01*
X118465000Y-67429000D02*
X120295000Y-67429000D01*
X118575000Y-67389000D02*
X120185000Y-67389000D01*
X118703000Y-67349000D02*
X120057000Y-67349000D01*
X118862000Y-67309000D02*
X119898000Y-67309000D01*
X119096000Y-67269000D02*
X119664000Y-67269000D01*
X117905000Y-72674775D02*
X117905000Y-72174775D01*
X117655000Y-72424775D02*
X118155000Y-72424775D01*
%TO.C,100n*%
X110590000Y-97940000D02*
X115430000Y-97940000D01*
X110590000Y-100180000D02*
X115430000Y-100180000D01*
X110590000Y-97940000D02*
X110590000Y-100180000D01*
X115430000Y-97940000D02*
X115430000Y-100180000D01*
%TO.C,10u*%
X115623000Y-109508775D02*
X116123000Y-109508775D01*
X115873000Y-109758775D02*
X115873000Y-109258775D01*
X117064000Y-104353000D02*
X117632000Y-104353000D01*
X116830000Y-104393000D02*
X117866000Y-104393000D01*
X116671000Y-104433000D02*
X118025000Y-104433000D01*
X116543000Y-104473000D02*
X118153000Y-104473000D01*
X116433000Y-104513000D02*
X118263000Y-104513000D01*
X116337000Y-104553000D02*
X118359000Y-104553000D01*
X116250000Y-104593000D02*
X118446000Y-104593000D01*
X116170000Y-104633000D02*
X118526000Y-104633000D01*
X118388000Y-104673000D02*
X118599000Y-104673000D01*
X116097000Y-104673000D02*
X116308000Y-104673000D01*
X118388000Y-104713000D02*
X118667000Y-104713000D01*
X116029000Y-104713000D02*
X116308000Y-104713000D01*
X118388000Y-104753000D02*
X118731000Y-104753000D01*
X115965000Y-104753000D02*
X116308000Y-104753000D01*
X118388000Y-104793000D02*
X118791000Y-104793000D01*
X115905000Y-104793000D02*
X116308000Y-104793000D01*
X118388000Y-104833000D02*
X118848000Y-104833000D01*
X115848000Y-104833000D02*
X116308000Y-104833000D01*
X118388000Y-104873000D02*
X118902000Y-104873000D01*
X115794000Y-104873000D02*
X116308000Y-104873000D01*
X118388000Y-104913000D02*
X118953000Y-104913000D01*
X115743000Y-104913000D02*
X116308000Y-104913000D01*
X118388000Y-104953000D02*
X119001000Y-104953000D01*
X115695000Y-104953000D02*
X116308000Y-104953000D01*
X118388000Y-104993000D02*
X119047000Y-104993000D01*
X115649000Y-104993000D02*
X116308000Y-104993000D01*
X118388000Y-105033000D02*
X119091000Y-105033000D01*
X115605000Y-105033000D02*
X116308000Y-105033000D01*
X118388000Y-105073000D02*
X119133000Y-105073000D01*
X115563000Y-105073000D02*
X116308000Y-105073000D01*
X118388000Y-105113000D02*
X119174000Y-105113000D01*
X115522000Y-105113000D02*
X116308000Y-105113000D01*
X118388000Y-105153000D02*
X119212000Y-105153000D01*
X115484000Y-105153000D02*
X116308000Y-105153000D01*
X118388000Y-105193000D02*
X119249000Y-105193000D01*
X115447000Y-105193000D02*
X116308000Y-105193000D01*
X118388000Y-105233000D02*
X119285000Y-105233000D01*
X115411000Y-105233000D02*
X116308000Y-105233000D01*
X118388000Y-105273000D02*
X119319000Y-105273000D01*
X115377000Y-105273000D02*
X116308000Y-105273000D01*
X118388000Y-105313000D02*
X119352000Y-105313000D01*
X115344000Y-105313000D02*
X116308000Y-105313000D01*
X118388000Y-105353000D02*
X119383000Y-105353000D01*
X115313000Y-105353000D02*
X116308000Y-105353000D01*
X118388000Y-105393000D02*
X119413000Y-105393000D01*
X115283000Y-105393000D02*
X116308000Y-105393000D01*
X118388000Y-105433000D02*
X119443000Y-105433000D01*
X115253000Y-105433000D02*
X116308000Y-105433000D01*
X118388000Y-105473000D02*
X119470000Y-105473000D01*
X115226000Y-105473000D02*
X116308000Y-105473000D01*
X118388000Y-105513000D02*
X119497000Y-105513000D01*
X115199000Y-105513000D02*
X116308000Y-105513000D01*
X118388000Y-105553000D02*
X119523000Y-105553000D01*
X115173000Y-105553000D02*
X116308000Y-105553000D01*
X118388000Y-105593000D02*
X119548000Y-105593000D01*
X115148000Y-105593000D02*
X116308000Y-105593000D01*
X118388000Y-105633000D02*
X119572000Y-105633000D01*
X115124000Y-105633000D02*
X116308000Y-105633000D01*
X118388000Y-105673000D02*
X119595000Y-105673000D01*
X115101000Y-105673000D02*
X116308000Y-105673000D01*
X118388000Y-105713000D02*
X119616000Y-105713000D01*
X115080000Y-105713000D02*
X116308000Y-105713000D01*
X118388000Y-105753000D02*
X119638000Y-105753000D01*
X115058000Y-105753000D02*
X116308000Y-105753000D01*
X118388000Y-105793000D02*
X119658000Y-105793000D01*
X115038000Y-105793000D02*
X116308000Y-105793000D01*
X118388000Y-105833000D02*
X119677000Y-105833000D01*
X115019000Y-105833000D02*
X116308000Y-105833000D01*
X118388000Y-105873000D02*
X119696000Y-105873000D01*
X115000000Y-105873000D02*
X116308000Y-105873000D01*
X118388000Y-105913000D02*
X119713000Y-105913000D01*
X114983000Y-105913000D02*
X116308000Y-105913000D01*
X118388000Y-105953000D02*
X119730000Y-105953000D01*
X114966000Y-105953000D02*
X116308000Y-105953000D01*
X118388000Y-105993000D02*
X119746000Y-105993000D01*
X114950000Y-105993000D02*
X116308000Y-105993000D01*
X118388000Y-106033000D02*
X119762000Y-106033000D01*
X114934000Y-106033000D02*
X116308000Y-106033000D01*
X118388000Y-106073000D02*
X119776000Y-106073000D01*
X114920000Y-106073000D02*
X116308000Y-106073000D01*
X118388000Y-106113000D02*
X119790000Y-106113000D01*
X114906000Y-106113000D02*
X116308000Y-106113000D01*
X118388000Y-106153000D02*
X119803000Y-106153000D01*
X114893000Y-106153000D02*
X116308000Y-106153000D01*
X118388000Y-106193000D02*
X119816000Y-106193000D01*
X114880000Y-106193000D02*
X116308000Y-106193000D01*
X118388000Y-106233000D02*
X119828000Y-106233000D01*
X114868000Y-106233000D02*
X116308000Y-106233000D01*
X118388000Y-106274000D02*
X119839000Y-106274000D01*
X114857000Y-106274000D02*
X116308000Y-106274000D01*
X118388000Y-106314000D02*
X119849000Y-106314000D01*
X114847000Y-106314000D02*
X116308000Y-106314000D01*
X118388000Y-106354000D02*
X119859000Y-106354000D01*
X114837000Y-106354000D02*
X116308000Y-106354000D01*
X118388000Y-106394000D02*
X119868000Y-106394000D01*
X114828000Y-106394000D02*
X116308000Y-106394000D01*
X118388000Y-106434000D02*
X119876000Y-106434000D01*
X114820000Y-106434000D02*
X116308000Y-106434000D01*
X118388000Y-106474000D02*
X119884000Y-106474000D01*
X114812000Y-106474000D02*
X116308000Y-106474000D01*
X118388000Y-106514000D02*
X119891000Y-106514000D01*
X114805000Y-106514000D02*
X116308000Y-106514000D01*
X118388000Y-106554000D02*
X119898000Y-106554000D01*
X114798000Y-106554000D02*
X116308000Y-106554000D01*
X118388000Y-106594000D02*
X119904000Y-106594000D01*
X114792000Y-106594000D02*
X116308000Y-106594000D01*
X118388000Y-106634000D02*
X119909000Y-106634000D01*
X114787000Y-106634000D02*
X116308000Y-106634000D01*
X118388000Y-106674000D02*
X119913000Y-106674000D01*
X114783000Y-106674000D02*
X116308000Y-106674000D01*
X118388000Y-106714000D02*
X119917000Y-106714000D01*
X114779000Y-106714000D02*
X116308000Y-106714000D01*
X114775000Y-106754000D02*
X119921000Y-106754000D01*
X114772000Y-106794000D02*
X119924000Y-106794000D01*
X114770000Y-106834000D02*
X119926000Y-106834000D01*
X114769000Y-106874000D02*
X119927000Y-106874000D01*
X114768000Y-106914000D02*
X119928000Y-106914000D01*
X114768000Y-106954000D02*
X119928000Y-106954000D01*
X119968000Y-106954000D02*
G75*
G03*
X119968000Y-106954000I-2620000J0D01*
G01*
%TO.C,100n*%
X115430000Y-143660000D02*
X115430000Y-145900000D01*
X110590000Y-143660000D02*
X110590000Y-145900000D01*
X110590000Y-145900000D02*
X115430000Y-145900000D01*
X110590000Y-143660000D02*
X115430000Y-143660000D01*
%TO.C,10u*%
X114607000Y-154212775D02*
X115107000Y-154212775D01*
X114857000Y-154462775D02*
X114857000Y-153962775D01*
X116048000Y-149057000D02*
X116616000Y-149057000D01*
X115814000Y-149097000D02*
X116850000Y-149097000D01*
X115655000Y-149137000D02*
X117009000Y-149137000D01*
X115527000Y-149177000D02*
X117137000Y-149177000D01*
X115417000Y-149217000D02*
X117247000Y-149217000D01*
X115321000Y-149257000D02*
X117343000Y-149257000D01*
X115234000Y-149297000D02*
X117430000Y-149297000D01*
X115154000Y-149337000D02*
X117510000Y-149337000D01*
X117372000Y-149377000D02*
X117583000Y-149377000D01*
X115081000Y-149377000D02*
X115292000Y-149377000D01*
X117372000Y-149417000D02*
X117651000Y-149417000D01*
X115013000Y-149417000D02*
X115292000Y-149417000D01*
X117372000Y-149457000D02*
X117715000Y-149457000D01*
X114949000Y-149457000D02*
X115292000Y-149457000D01*
X117372000Y-149497000D02*
X117775000Y-149497000D01*
X114889000Y-149497000D02*
X115292000Y-149497000D01*
X117372000Y-149537000D02*
X117832000Y-149537000D01*
X114832000Y-149537000D02*
X115292000Y-149537000D01*
X117372000Y-149577000D02*
X117886000Y-149577000D01*
X114778000Y-149577000D02*
X115292000Y-149577000D01*
X117372000Y-149617000D02*
X117937000Y-149617000D01*
X114727000Y-149617000D02*
X115292000Y-149617000D01*
X117372000Y-149657000D02*
X117985000Y-149657000D01*
X114679000Y-149657000D02*
X115292000Y-149657000D01*
X117372000Y-149697000D02*
X118031000Y-149697000D01*
X114633000Y-149697000D02*
X115292000Y-149697000D01*
X117372000Y-149737000D02*
X118075000Y-149737000D01*
X114589000Y-149737000D02*
X115292000Y-149737000D01*
X117372000Y-149777000D02*
X118117000Y-149777000D01*
X114547000Y-149777000D02*
X115292000Y-149777000D01*
X117372000Y-149817000D02*
X118158000Y-149817000D01*
X114506000Y-149817000D02*
X115292000Y-149817000D01*
X117372000Y-149857000D02*
X118196000Y-149857000D01*
X114468000Y-149857000D02*
X115292000Y-149857000D01*
X117372000Y-149897000D02*
X118233000Y-149897000D01*
X114431000Y-149897000D02*
X115292000Y-149897000D01*
X117372000Y-149937000D02*
X118269000Y-149937000D01*
X114395000Y-149937000D02*
X115292000Y-149937000D01*
X117372000Y-149977000D02*
X118303000Y-149977000D01*
X114361000Y-149977000D02*
X115292000Y-149977000D01*
X117372000Y-150017000D02*
X118336000Y-150017000D01*
X114328000Y-150017000D02*
X115292000Y-150017000D01*
X117372000Y-150057000D02*
X118367000Y-150057000D01*
X114297000Y-150057000D02*
X115292000Y-150057000D01*
X117372000Y-150097000D02*
X118397000Y-150097000D01*
X114267000Y-150097000D02*
X115292000Y-150097000D01*
X117372000Y-150137000D02*
X118427000Y-150137000D01*
X114237000Y-150137000D02*
X115292000Y-150137000D01*
X117372000Y-150177000D02*
X118454000Y-150177000D01*
X114210000Y-150177000D02*
X115292000Y-150177000D01*
X117372000Y-150217000D02*
X118481000Y-150217000D01*
X114183000Y-150217000D02*
X115292000Y-150217000D01*
X117372000Y-150257000D02*
X118507000Y-150257000D01*
X114157000Y-150257000D02*
X115292000Y-150257000D01*
X117372000Y-150297000D02*
X118532000Y-150297000D01*
X114132000Y-150297000D02*
X115292000Y-150297000D01*
X117372000Y-150337000D02*
X118556000Y-150337000D01*
X114108000Y-150337000D02*
X115292000Y-150337000D01*
X117372000Y-150377000D02*
X118579000Y-150377000D01*
X114085000Y-150377000D02*
X115292000Y-150377000D01*
X117372000Y-150417000D02*
X118600000Y-150417000D01*
X114064000Y-150417000D02*
X115292000Y-150417000D01*
X117372000Y-150457000D02*
X118622000Y-150457000D01*
X114042000Y-150457000D02*
X115292000Y-150457000D01*
X117372000Y-150497000D02*
X118642000Y-150497000D01*
X114022000Y-150497000D02*
X115292000Y-150497000D01*
X117372000Y-150537000D02*
X118661000Y-150537000D01*
X114003000Y-150537000D02*
X115292000Y-150537000D01*
X117372000Y-150577000D02*
X118680000Y-150577000D01*
X113984000Y-150577000D02*
X115292000Y-150577000D01*
X117372000Y-150617000D02*
X118697000Y-150617000D01*
X113967000Y-150617000D02*
X115292000Y-150617000D01*
X117372000Y-150657000D02*
X118714000Y-150657000D01*
X113950000Y-150657000D02*
X115292000Y-150657000D01*
X117372000Y-150697000D02*
X118730000Y-150697000D01*
X113934000Y-150697000D02*
X115292000Y-150697000D01*
X117372000Y-150737000D02*
X118746000Y-150737000D01*
X113918000Y-150737000D02*
X115292000Y-150737000D01*
X117372000Y-150777000D02*
X118760000Y-150777000D01*
X113904000Y-150777000D02*
X115292000Y-150777000D01*
X117372000Y-150817000D02*
X118774000Y-150817000D01*
X113890000Y-150817000D02*
X115292000Y-150817000D01*
X117372000Y-150857000D02*
X118787000Y-150857000D01*
X113877000Y-150857000D02*
X115292000Y-150857000D01*
X117372000Y-150897000D02*
X118800000Y-150897000D01*
X113864000Y-150897000D02*
X115292000Y-150897000D01*
X117372000Y-150937000D02*
X118812000Y-150937000D01*
X113852000Y-150937000D02*
X115292000Y-150937000D01*
X117372000Y-150978000D02*
X118823000Y-150978000D01*
X113841000Y-150978000D02*
X115292000Y-150978000D01*
X117372000Y-151018000D02*
X118833000Y-151018000D01*
X113831000Y-151018000D02*
X115292000Y-151018000D01*
X117372000Y-151058000D02*
X118843000Y-151058000D01*
X113821000Y-151058000D02*
X115292000Y-151058000D01*
X117372000Y-151098000D02*
X118852000Y-151098000D01*
X113812000Y-151098000D02*
X115292000Y-151098000D01*
X117372000Y-151138000D02*
X118860000Y-151138000D01*
X113804000Y-151138000D02*
X115292000Y-151138000D01*
X117372000Y-151178000D02*
X118868000Y-151178000D01*
X113796000Y-151178000D02*
X115292000Y-151178000D01*
X117372000Y-151218000D02*
X118875000Y-151218000D01*
X113789000Y-151218000D02*
X115292000Y-151218000D01*
X117372000Y-151258000D02*
X118882000Y-151258000D01*
X113782000Y-151258000D02*
X115292000Y-151258000D01*
X117372000Y-151298000D02*
X118888000Y-151298000D01*
X113776000Y-151298000D02*
X115292000Y-151298000D01*
X117372000Y-151338000D02*
X118893000Y-151338000D01*
X113771000Y-151338000D02*
X115292000Y-151338000D01*
X117372000Y-151378000D02*
X118897000Y-151378000D01*
X113767000Y-151378000D02*
X115292000Y-151378000D01*
X117372000Y-151418000D02*
X118901000Y-151418000D01*
X113763000Y-151418000D02*
X115292000Y-151418000D01*
X113759000Y-151458000D02*
X118905000Y-151458000D01*
X113756000Y-151498000D02*
X118908000Y-151498000D01*
X113754000Y-151538000D02*
X118910000Y-151538000D01*
X113753000Y-151578000D02*
X118911000Y-151578000D01*
X113752000Y-151618000D02*
X118912000Y-151618000D01*
X113752000Y-151658000D02*
X118912000Y-151658000D01*
X118952000Y-151658000D02*
G75*
G03*
X118952000Y-151658000I-2620000J0D01*
G01*
%TO.C,4148*%
X119560000Y-32458000D02*
X119560000Y-29518000D01*
X119560000Y-29518000D02*
X114120000Y-29518000D01*
X114120000Y-29518000D02*
X114120000Y-32458000D01*
X114120000Y-32458000D02*
X119560000Y-32458000D01*
X120580000Y-30988000D02*
X119560000Y-30988000D01*
X113100000Y-30988000D02*
X114120000Y-30988000D01*
X118660000Y-32458000D02*
X118660000Y-29518000D01*
X118540000Y-32458000D02*
X118540000Y-29518000D01*
X118780000Y-32458000D02*
X118780000Y-29518000D01*
X118860000Y-36470000D02*
X118860000Y-33530000D01*
X118620000Y-36470000D02*
X118620000Y-33530000D01*
X118740000Y-36470000D02*
X118740000Y-33530000D01*
X113180000Y-35000000D02*
X114200000Y-35000000D01*
X120660000Y-35000000D02*
X119640000Y-35000000D01*
X114200000Y-36470000D02*
X119640000Y-36470000D01*
X114200000Y-33530000D02*
X114200000Y-36470000D01*
X119640000Y-33530000D02*
X114200000Y-33530000D01*
X119640000Y-36470000D02*
X119640000Y-33530000D01*
X119560000Y-59890000D02*
X119560000Y-56950000D01*
X119560000Y-56950000D02*
X114120000Y-56950000D01*
X114120000Y-56950000D02*
X114120000Y-59890000D01*
X114120000Y-59890000D02*
X119560000Y-59890000D01*
X120580000Y-58420000D02*
X119560000Y-58420000D01*
X113100000Y-58420000D02*
X114120000Y-58420000D01*
X118660000Y-59890000D02*
X118660000Y-56950000D01*
X118540000Y-59890000D02*
X118540000Y-56950000D01*
X118780000Y-59890000D02*
X118780000Y-56950000D01*
X118780000Y-63700000D02*
X118780000Y-60760000D01*
X118540000Y-63700000D02*
X118540000Y-60760000D01*
X118660000Y-63700000D02*
X118660000Y-60760000D01*
X113100000Y-62230000D02*
X114120000Y-62230000D01*
X120580000Y-62230000D02*
X119560000Y-62230000D01*
X114120000Y-63700000D02*
X119560000Y-63700000D01*
X114120000Y-60760000D02*
X114120000Y-63700000D01*
X119560000Y-60760000D02*
X114120000Y-60760000D01*
X119560000Y-63700000D02*
X119560000Y-60760000D01*
X119560000Y-92910000D02*
X119560000Y-89970000D01*
X119560000Y-89970000D02*
X114120000Y-89970000D01*
X114120000Y-89970000D02*
X114120000Y-92910000D01*
X114120000Y-92910000D02*
X119560000Y-92910000D01*
X120580000Y-91440000D02*
X119560000Y-91440000D01*
X113100000Y-91440000D02*
X114120000Y-91440000D01*
X118660000Y-92910000D02*
X118660000Y-89970000D01*
X118540000Y-92910000D02*
X118540000Y-89970000D01*
X118780000Y-92910000D02*
X118780000Y-89970000D01*
X118780000Y-96720000D02*
X118780000Y-93780000D01*
X118540000Y-96720000D02*
X118540000Y-93780000D01*
X118660000Y-96720000D02*
X118660000Y-93780000D01*
X113100000Y-95250000D02*
X114120000Y-95250000D01*
X120580000Y-95250000D02*
X119560000Y-95250000D01*
X114120000Y-96720000D02*
X119560000Y-96720000D01*
X114120000Y-93780000D02*
X114120000Y-96720000D01*
X119560000Y-93780000D02*
X114120000Y-93780000D01*
X119560000Y-96720000D02*
X119560000Y-93780000D01*
X118780000Y-138122000D02*
X118780000Y-135182000D01*
X118540000Y-138122000D02*
X118540000Y-135182000D01*
X118660000Y-138122000D02*
X118660000Y-135182000D01*
X113100000Y-136652000D02*
X114120000Y-136652000D01*
X120580000Y-136652000D02*
X119560000Y-136652000D01*
X114120000Y-138122000D02*
X119560000Y-138122000D01*
X114120000Y-135182000D02*
X114120000Y-138122000D01*
X119560000Y-135182000D02*
X114120000Y-135182000D01*
X119560000Y-138122000D02*
X119560000Y-135182000D01*
X119560000Y-142186000D02*
X119560000Y-139246000D01*
X119560000Y-139246000D02*
X114120000Y-139246000D01*
X114120000Y-139246000D02*
X114120000Y-142186000D01*
X114120000Y-142186000D02*
X119560000Y-142186000D01*
X120580000Y-140716000D02*
X119560000Y-140716000D01*
X113100000Y-140716000D02*
X114120000Y-140716000D01*
X118660000Y-142186000D02*
X118660000Y-139246000D01*
X118540000Y-142186000D02*
X118540000Y-139246000D01*
X118780000Y-142186000D02*
X118780000Y-139246000D01*
%TO.C,J1*%
X108328000Y-35649000D02*
X102362000Y-35649000D01*
%TO.C,J2*%
X108328000Y-44285000D02*
X102362000Y-44285000D01*
%TO.C,J3*%
X107531000Y-57534000D02*
X107531000Y-67434000D01*
%TO.C,J4*%
X107531000Y-70996000D02*
X107531000Y-76962000D01*
%TO.C,J5*%
X107785000Y-90808000D02*
X107785000Y-100708000D01*
%TO.C,J6*%
X107785000Y-104270000D02*
X107785000Y-110236000D01*
%TO.C,J7*%
X107785000Y-136020000D02*
X107785000Y-145920000D01*
%TO.C,J8*%
X107785000Y-149990000D02*
X107785000Y-155956000D01*
%TO.C,BS170*%
X137342000Y-31220000D02*
X137342000Y-34820000D01*
X137353522Y-31181522D02*
G75*
G02*
X141792000Y-33020000I1838478J-1838478D01*
G01*
X137353522Y-34858478D02*
G75*
G03*
X141792000Y-33020000I1838478J1838478D01*
G01*
X141550000Y-61490000D02*
X141550000Y-57890000D01*
X141538478Y-57851522D02*
G75*
G03*
X137100000Y-59690000I-1838478J-1838478D01*
G01*
X141538478Y-61528478D02*
G75*
G02*
X137100000Y-59690000I-1838478J1838478D01*
G01*
X141550000Y-102130000D02*
X141550000Y-98530000D01*
X141538478Y-102168478D02*
G75*
G02*
X137100000Y-100330000I-1838478J1838478D01*
G01*
X141538478Y-98491522D02*
G75*
G03*
X137100000Y-100330000I-1838478J-1838478D01*
G01*
X141550000Y-141754000D02*
X141550000Y-138154000D01*
X141538478Y-138115522D02*
G75*
G03*
X137100000Y-139954000I-1838478J-1838478D01*
G01*
X141538478Y-141792478D02*
G75*
G02*
X137100000Y-139954000I-1838478J1838478D01*
G01*
%TO.C,10M*%
X125762000Y-29630000D02*
X125762000Y-29960000D01*
X132302000Y-29630000D02*
X125762000Y-29630000D01*
X132302000Y-29960000D02*
X132302000Y-29630000D01*
X125762000Y-32370000D02*
X125762000Y-32040000D01*
X132302000Y-32370000D02*
X125762000Y-32370000D01*
X132302000Y-32040000D02*
X132302000Y-32370000D01*
X125762000Y-33960000D02*
X125762000Y-33630000D01*
X125762000Y-33630000D02*
X132302000Y-33630000D01*
X132302000Y-33630000D02*
X132302000Y-33960000D01*
X125762000Y-36040000D02*
X125762000Y-36370000D01*
X125762000Y-36370000D02*
X132302000Y-36370000D01*
X132302000Y-36370000D02*
X132302000Y-36040000D01*
%TO.C,5K1*%
X132302000Y-40232000D02*
X132302000Y-39902000D01*
X125762000Y-40232000D02*
X132302000Y-40232000D01*
X125762000Y-39902000D02*
X125762000Y-40232000D01*
X132302000Y-37492000D02*
X132302000Y-37822000D01*
X125762000Y-37492000D02*
X132302000Y-37492000D01*
X125762000Y-37822000D02*
X125762000Y-37492000D01*
%TO.C,100K*%
X136176000Y-37492000D02*
X136176000Y-37822000D01*
X142716000Y-37492000D02*
X136176000Y-37492000D01*
X142716000Y-37822000D02*
X142716000Y-37492000D01*
X136176000Y-40232000D02*
X136176000Y-39902000D01*
X142716000Y-40232000D02*
X136176000Y-40232000D01*
X142716000Y-39902000D02*
X142716000Y-40232000D01*
%TO.C,10M*%
X132810000Y-59790000D02*
X132810000Y-59460000D01*
X126270000Y-59790000D02*
X132810000Y-59790000D01*
X126270000Y-59460000D02*
X126270000Y-59790000D01*
X132810000Y-57050000D02*
X132810000Y-57380000D01*
X126270000Y-57050000D02*
X132810000Y-57050000D01*
X126270000Y-57380000D02*
X126270000Y-57050000D01*
X126270000Y-61190000D02*
X126270000Y-60860000D01*
X126270000Y-60860000D02*
X132810000Y-60860000D01*
X132810000Y-60860000D02*
X132810000Y-61190000D01*
X126270000Y-63270000D02*
X126270000Y-63600000D01*
X126270000Y-63600000D02*
X132810000Y-63600000D01*
X132810000Y-63600000D02*
X132810000Y-63270000D01*
%TO.C,5K1*%
X132810000Y-67410000D02*
X132810000Y-67080000D01*
X126270000Y-67410000D02*
X132810000Y-67410000D01*
X126270000Y-67080000D02*
X126270000Y-67410000D01*
X132810000Y-64670000D02*
X132810000Y-65000000D01*
X126270000Y-64670000D02*
X132810000Y-64670000D01*
X126270000Y-65000000D02*
X126270000Y-64670000D01*
%TO.C,100K*%
X132810000Y-71220000D02*
X132810000Y-70890000D01*
X126270000Y-71220000D02*
X132810000Y-71220000D01*
X126270000Y-70890000D02*
X126270000Y-71220000D01*
X132810000Y-68480000D02*
X132810000Y-68810000D01*
X126270000Y-68480000D02*
X132810000Y-68480000D01*
X126270000Y-68810000D02*
X126270000Y-68480000D01*
%TO.C,10M*%
X126016000Y-90654000D02*
X126016000Y-90324000D01*
X126016000Y-90324000D02*
X132556000Y-90324000D01*
X132556000Y-90324000D02*
X132556000Y-90654000D01*
X126016000Y-92734000D02*
X126016000Y-93064000D01*
X126016000Y-93064000D02*
X132556000Y-93064000D01*
X132556000Y-93064000D02*
X132556000Y-92734000D01*
X132556000Y-96620000D02*
X132556000Y-96290000D01*
X126016000Y-96620000D02*
X132556000Y-96620000D01*
X126016000Y-96290000D02*
X126016000Y-96620000D01*
X132556000Y-93880000D02*
X132556000Y-94210000D01*
X126016000Y-93880000D02*
X132556000Y-93880000D01*
X126016000Y-94210000D02*
X126016000Y-93880000D01*
%TO.C,5K1*%
X132556000Y-100430000D02*
X132556000Y-100100000D01*
X126016000Y-100430000D02*
X132556000Y-100430000D01*
X126016000Y-100100000D02*
X126016000Y-100430000D01*
X132556000Y-97690000D02*
X132556000Y-98020000D01*
X126016000Y-97690000D02*
X132556000Y-97690000D01*
X126016000Y-98020000D02*
X126016000Y-97690000D01*
%TO.C,100K*%
X126016000Y-102084000D02*
X126016000Y-101754000D01*
X126016000Y-101754000D02*
X132556000Y-101754000D01*
X132556000Y-101754000D02*
X132556000Y-102084000D01*
X126016000Y-104164000D02*
X126016000Y-104494000D01*
X126016000Y-104494000D02*
X132556000Y-104494000D01*
X132556000Y-104494000D02*
X132556000Y-104164000D01*
%TO.C,10M*%
X125508000Y-135612000D02*
X125508000Y-135282000D01*
X125508000Y-135282000D02*
X132048000Y-135282000D01*
X132048000Y-135282000D02*
X132048000Y-135612000D01*
X125508000Y-137692000D02*
X125508000Y-138022000D01*
X125508000Y-138022000D02*
X132048000Y-138022000D01*
X132048000Y-138022000D02*
X132048000Y-137692000D01*
X125508000Y-139676000D02*
X125508000Y-139346000D01*
X125508000Y-139346000D02*
X132048000Y-139346000D01*
X132048000Y-139346000D02*
X132048000Y-139676000D01*
X125508000Y-141756000D02*
X125508000Y-142086000D01*
X125508000Y-142086000D02*
X132048000Y-142086000D01*
X132048000Y-142086000D02*
X132048000Y-141756000D01*
%TO.C,5K1*%
X125508000Y-143232000D02*
X125508000Y-142902000D01*
X125508000Y-142902000D02*
X132048000Y-142902000D01*
X132048000Y-142902000D02*
X132048000Y-143232000D01*
X125508000Y-145312000D02*
X125508000Y-145642000D01*
X125508000Y-145642000D02*
X132048000Y-145642000D01*
X132048000Y-145642000D02*
X132048000Y-145312000D01*
%TO.C,100K*%
X125508000Y-146788000D02*
X125508000Y-146458000D01*
X125508000Y-146458000D02*
X132048000Y-146458000D01*
X132048000Y-146458000D02*
X132048000Y-146788000D01*
X125508000Y-148868000D02*
X125508000Y-149198000D01*
X125508000Y-149198000D02*
X132048000Y-149198000D01*
X132048000Y-149198000D02*
X132048000Y-148868000D01*
%TO.C,RV1*%
X171920000Y-34880000D02*
X171920000Y-41121000D01*
X161920000Y-34880000D02*
X161920000Y-41121000D01*
X161920000Y-41121000D02*
X171920000Y-41121000D01*
X161920000Y-34880000D02*
X171920000Y-34880000D01*
X161920000Y-34380000D02*
X161920000Y-41620000D01*
X156920000Y-34380000D02*
X156920000Y-41620000D01*
X156920000Y-41620000D02*
X161920000Y-41620000D01*
X156920000Y-34380000D02*
X161920000Y-34380000D01*
X156920000Y-28930000D02*
X156920000Y-47070000D01*
X146180000Y-28930000D02*
X146180000Y-47070000D01*
X146180000Y-47070000D02*
X156920000Y-47070000D01*
X146180000Y-28930000D02*
X156920000Y-28930000D01*
%TO.C,RV2*%
X171920000Y-70880000D02*
X171920000Y-77121000D01*
X161920000Y-70880000D02*
X161920000Y-77121000D01*
X161920000Y-77121000D02*
X171920000Y-77121000D01*
X161920000Y-70880000D02*
X171920000Y-70880000D01*
X161920000Y-70380000D02*
X161920000Y-77620000D01*
X156920000Y-70380000D02*
X156920000Y-77620000D01*
X156920000Y-77620000D02*
X161920000Y-77620000D01*
X156920000Y-70380000D02*
X161920000Y-70380000D01*
X156920000Y-64930000D02*
X156920000Y-83070000D01*
X146180000Y-64930000D02*
X146180000Y-83070000D01*
X146180000Y-83070000D02*
X156920000Y-83070000D01*
X146180000Y-64930000D02*
X156920000Y-64930000D01*
%TO.C,RV3*%
X146180000Y-100930000D02*
X156920000Y-100930000D01*
X146180000Y-119070000D02*
X156920000Y-119070000D01*
X146180000Y-100930000D02*
X146180000Y-119070000D01*
X156920000Y-100930000D02*
X156920000Y-119070000D01*
X156920000Y-106380000D02*
X161920000Y-106380000D01*
X156920000Y-113620000D02*
X161920000Y-113620000D01*
X156920000Y-106380000D02*
X156920000Y-113620000D01*
X161920000Y-106380000D02*
X161920000Y-113620000D01*
X161920000Y-106880000D02*
X171920000Y-106880000D01*
X161920000Y-113121000D02*
X171920000Y-113121000D01*
X161920000Y-106880000D02*
X161920000Y-113121000D01*
X171920000Y-106880000D02*
X171920000Y-113121000D01*
%TO.C,RV4*%
X146180000Y-136930000D02*
X156920000Y-136930000D01*
X146180000Y-155070000D02*
X156920000Y-155070000D01*
X146180000Y-136930000D02*
X146180000Y-155070000D01*
X156920000Y-136930000D02*
X156920000Y-155070000D01*
X156920000Y-142380000D02*
X161920000Y-142380000D01*
X156920000Y-149620000D02*
X161920000Y-149620000D01*
X156920000Y-142380000D02*
X156920000Y-149620000D01*
X161920000Y-142380000D02*
X161920000Y-149620000D01*
X161920000Y-142880000D02*
X171920000Y-142880000D01*
X161920000Y-149121000D02*
X171920000Y-149121000D01*
X161920000Y-142880000D02*
X161920000Y-149121000D01*
X171920000Y-142880000D02*
X171920000Y-149121000D01*
%TO.C,100n*%
D16*
X111676952Y-41564380D02*
X111105523Y-41564380D01*
X111391238Y-41564380D02*
X111391238Y-40564380D01*
X111296000Y-40707238D01*
X111200761Y-40802476D01*
X111105523Y-40850095D01*
X112296000Y-40564380D02*
X112391238Y-40564380D01*
X112486476Y-40612000D01*
X112534095Y-40659619D01*
X112581714Y-40754857D01*
X112629333Y-40945333D01*
X112629333Y-41183428D01*
X112581714Y-41373904D01*
X112534095Y-41469142D01*
X112486476Y-41516761D01*
X112391238Y-41564380D01*
X112296000Y-41564380D01*
X112200761Y-41516761D01*
X112153142Y-41469142D01*
X112105523Y-41373904D01*
X112057904Y-41183428D01*
X112057904Y-40945333D01*
X112105523Y-40754857D01*
X112153142Y-40659619D01*
X112200761Y-40612000D01*
X112296000Y-40564380D01*
X113248380Y-40564380D02*
X113343619Y-40564380D01*
X113438857Y-40612000D01*
X113486476Y-40659619D01*
X113534095Y-40754857D01*
X113581714Y-40945333D01*
X113581714Y-41183428D01*
X113534095Y-41373904D01*
X113486476Y-41469142D01*
X113438857Y-41516761D01*
X113343619Y-41564380D01*
X113248380Y-41564380D01*
X113153142Y-41516761D01*
X113105523Y-41469142D01*
X113057904Y-41373904D01*
X113010285Y-41183428D01*
X113010285Y-40945333D01*
X113057904Y-40754857D01*
X113105523Y-40659619D01*
X113153142Y-40612000D01*
X113248380Y-40564380D01*
X114010285Y-40897714D02*
X114010285Y-41564380D01*
X114010285Y-40992952D02*
X114057904Y-40945333D01*
X114153142Y-40897714D01*
X114296000Y-40897714D01*
X114391238Y-40945333D01*
X114438857Y-41040571D01*
X114438857Y-41564380D01*
%TO.C,10u*%
X123952380Y-41048857D02*
X123952380Y-41620285D01*
X123952380Y-41334571D02*
X122952380Y-41334571D01*
X123095238Y-41429809D01*
X123190476Y-41525047D01*
X123238095Y-41620285D01*
X122952380Y-40429809D02*
X122952380Y-40334571D01*
X123000000Y-40239333D01*
X123047619Y-40191714D01*
X123142857Y-40144095D01*
X123333333Y-40096476D01*
X123571428Y-40096476D01*
X123761904Y-40144095D01*
X123857142Y-40191714D01*
X123904761Y-40239333D01*
X123952380Y-40334571D01*
X123952380Y-40429809D01*
X123904761Y-40525047D01*
X123857142Y-40572666D01*
X123761904Y-40620285D01*
X123571428Y-40667904D01*
X123333333Y-40667904D01*
X123142857Y-40620285D01*
X123047619Y-40572666D01*
X123000000Y-40525047D01*
X122952380Y-40429809D01*
X123285714Y-39239333D02*
X123952380Y-39239333D01*
X123285714Y-39667904D02*
X123809523Y-39667904D01*
X123904761Y-39620285D01*
X123952380Y-39525047D01*
X123952380Y-39382190D01*
X123904761Y-39286952D01*
X123857142Y-39239333D01*
%TO.C,100n*%
X111880952Y-68952380D02*
X111309523Y-68952380D01*
X111595238Y-68952380D02*
X111595238Y-67952380D01*
X111500000Y-68095238D01*
X111404761Y-68190476D01*
X111309523Y-68238095D01*
X112500000Y-67952380D02*
X112595238Y-67952380D01*
X112690476Y-68000000D01*
X112738095Y-68047619D01*
X112785714Y-68142857D01*
X112833333Y-68333333D01*
X112833333Y-68571428D01*
X112785714Y-68761904D01*
X112738095Y-68857142D01*
X112690476Y-68904761D01*
X112595238Y-68952380D01*
X112500000Y-68952380D01*
X112404761Y-68904761D01*
X112357142Y-68857142D01*
X112309523Y-68761904D01*
X112261904Y-68571428D01*
X112261904Y-68333333D01*
X112309523Y-68142857D01*
X112357142Y-68047619D01*
X112404761Y-68000000D01*
X112500000Y-67952380D01*
X113452380Y-67952380D02*
X113547619Y-67952380D01*
X113642857Y-68000000D01*
X113690476Y-68047619D01*
X113738095Y-68142857D01*
X113785714Y-68333333D01*
X113785714Y-68571428D01*
X113738095Y-68761904D01*
X113690476Y-68857142D01*
X113642857Y-68904761D01*
X113547619Y-68952380D01*
X113452380Y-68952380D01*
X113357142Y-68904761D01*
X113309523Y-68857142D01*
X113261904Y-68761904D01*
X113214285Y-68571428D01*
X113214285Y-68333333D01*
X113261904Y-68142857D01*
X113309523Y-68047619D01*
X113357142Y-68000000D01*
X113452380Y-67952380D01*
X114214285Y-68285714D02*
X114214285Y-68952380D01*
X114214285Y-68380952D02*
X114261904Y-68333333D01*
X114357142Y-68285714D01*
X114500000Y-68285714D01*
X114595238Y-68333333D01*
X114642857Y-68428571D01*
X114642857Y-68952380D01*
%TO.C,10u*%
X123452380Y-70512857D02*
X123452380Y-71084285D01*
X123452380Y-70798571D02*
X122452380Y-70798571D01*
X122595238Y-70893809D01*
X122690476Y-70989047D01*
X122738095Y-71084285D01*
X122452380Y-69893809D02*
X122452380Y-69798571D01*
X122500000Y-69703333D01*
X122547619Y-69655714D01*
X122642857Y-69608095D01*
X122833333Y-69560476D01*
X123071428Y-69560476D01*
X123261904Y-69608095D01*
X123357142Y-69655714D01*
X123404761Y-69703333D01*
X123452380Y-69798571D01*
X123452380Y-69893809D01*
X123404761Y-69989047D01*
X123357142Y-70036666D01*
X123261904Y-70084285D01*
X123071428Y-70131904D01*
X122833333Y-70131904D01*
X122642857Y-70084285D01*
X122547619Y-70036666D01*
X122500000Y-69989047D01*
X122452380Y-69893809D01*
X122785714Y-68703333D02*
X123452380Y-68703333D01*
X122785714Y-69131904D02*
X123309523Y-69131904D01*
X123404761Y-69084285D01*
X123452380Y-68989047D01*
X123452380Y-68846190D01*
X123404761Y-68750952D01*
X123357142Y-68703333D01*
%TO.C,100n*%
X111880952Y-101952380D02*
X111309523Y-101952380D01*
X111595238Y-101952380D02*
X111595238Y-100952380D01*
X111500000Y-101095238D01*
X111404761Y-101190476D01*
X111309523Y-101238095D01*
X112500000Y-100952380D02*
X112595238Y-100952380D01*
X112690476Y-101000000D01*
X112738095Y-101047619D01*
X112785714Y-101142857D01*
X112833333Y-101333333D01*
X112833333Y-101571428D01*
X112785714Y-101761904D01*
X112738095Y-101857142D01*
X112690476Y-101904761D01*
X112595238Y-101952380D01*
X112500000Y-101952380D01*
X112404761Y-101904761D01*
X112357142Y-101857142D01*
X112309523Y-101761904D01*
X112261904Y-101571428D01*
X112261904Y-101333333D01*
X112309523Y-101142857D01*
X112357142Y-101047619D01*
X112404761Y-101000000D01*
X112500000Y-100952380D01*
X113452380Y-100952380D02*
X113547619Y-100952380D01*
X113642857Y-101000000D01*
X113690476Y-101047619D01*
X113738095Y-101142857D01*
X113785714Y-101333333D01*
X113785714Y-101571428D01*
X113738095Y-101761904D01*
X113690476Y-101857142D01*
X113642857Y-101904761D01*
X113547619Y-101952380D01*
X113452380Y-101952380D01*
X113357142Y-101904761D01*
X113309523Y-101857142D01*
X113261904Y-101761904D01*
X113214285Y-101571428D01*
X113214285Y-101333333D01*
X113261904Y-101142857D01*
X113309523Y-101047619D01*
X113357142Y-101000000D01*
X113452380Y-100952380D01*
X114214285Y-101285714D02*
X114214285Y-101952380D01*
X114214285Y-101380952D02*
X114261904Y-101333333D01*
X114357142Y-101285714D01*
X114500000Y-101285714D01*
X114595238Y-101333333D01*
X114642857Y-101428571D01*
X114642857Y-101952380D01*
%TO.C,10u*%
X121452380Y-107642857D02*
X121452380Y-108214285D01*
X121452380Y-107928571D02*
X120452380Y-107928571D01*
X120595238Y-108023809D01*
X120690476Y-108119047D01*
X120738095Y-108214285D01*
X120452380Y-107023809D02*
X120452380Y-106928571D01*
X120500000Y-106833333D01*
X120547619Y-106785714D01*
X120642857Y-106738095D01*
X120833333Y-106690476D01*
X121071428Y-106690476D01*
X121261904Y-106738095D01*
X121357142Y-106785714D01*
X121404761Y-106833333D01*
X121452380Y-106928571D01*
X121452380Y-107023809D01*
X121404761Y-107119047D01*
X121357142Y-107166666D01*
X121261904Y-107214285D01*
X121071428Y-107261904D01*
X120833333Y-107261904D01*
X120642857Y-107214285D01*
X120547619Y-107166666D01*
X120500000Y-107119047D01*
X120452380Y-107023809D01*
X120785714Y-105833333D02*
X121452380Y-105833333D01*
X120785714Y-106261904D02*
X121309523Y-106261904D01*
X121404761Y-106214285D01*
X121452380Y-106119047D01*
X121452380Y-105976190D01*
X121404761Y-105880952D01*
X121357142Y-105833333D01*
%TO.C,100n*%
X111890952Y-147452380D02*
X111319523Y-147452380D01*
X111605238Y-147452380D02*
X111605238Y-146452380D01*
X111510000Y-146595238D01*
X111414761Y-146690476D01*
X111319523Y-146738095D01*
X112510000Y-146452380D02*
X112605238Y-146452380D01*
X112700476Y-146500000D01*
X112748095Y-146547619D01*
X112795714Y-146642857D01*
X112843333Y-146833333D01*
X112843333Y-147071428D01*
X112795714Y-147261904D01*
X112748095Y-147357142D01*
X112700476Y-147404761D01*
X112605238Y-147452380D01*
X112510000Y-147452380D01*
X112414761Y-147404761D01*
X112367142Y-147357142D01*
X112319523Y-147261904D01*
X112271904Y-147071428D01*
X112271904Y-146833333D01*
X112319523Y-146642857D01*
X112367142Y-146547619D01*
X112414761Y-146500000D01*
X112510000Y-146452380D01*
X113462380Y-146452380D02*
X113557619Y-146452380D01*
X113652857Y-146500000D01*
X113700476Y-146547619D01*
X113748095Y-146642857D01*
X113795714Y-146833333D01*
X113795714Y-147071428D01*
X113748095Y-147261904D01*
X113700476Y-147357142D01*
X113652857Y-147404761D01*
X113557619Y-147452380D01*
X113462380Y-147452380D01*
X113367142Y-147404761D01*
X113319523Y-147357142D01*
X113271904Y-147261904D01*
X113224285Y-147071428D01*
X113224285Y-146833333D01*
X113271904Y-146642857D01*
X113319523Y-146547619D01*
X113367142Y-146500000D01*
X113462380Y-146452380D01*
X114224285Y-146785714D02*
X114224285Y-147452380D01*
X114224285Y-146880952D02*
X114271904Y-146833333D01*
X114367142Y-146785714D01*
X114510000Y-146785714D01*
X114605238Y-146833333D01*
X114652857Y-146928571D01*
X114652857Y-147452380D01*
%TO.C,10u*%
X120452380Y-152142857D02*
X120452380Y-152714285D01*
X120452380Y-152428571D02*
X119452380Y-152428571D01*
X119595238Y-152523809D01*
X119690476Y-152619047D01*
X119738095Y-152714285D01*
X119452380Y-151523809D02*
X119452380Y-151428571D01*
X119500000Y-151333333D01*
X119547619Y-151285714D01*
X119642857Y-151238095D01*
X119833333Y-151190476D01*
X120071428Y-151190476D01*
X120261904Y-151238095D01*
X120357142Y-151285714D01*
X120404761Y-151333333D01*
X120452380Y-151428571D01*
X120452380Y-151523809D01*
X120404761Y-151619047D01*
X120357142Y-151666666D01*
X120261904Y-151714285D01*
X120071428Y-151761904D01*
X119833333Y-151761904D01*
X119642857Y-151714285D01*
X119547619Y-151666666D01*
X119500000Y-151619047D01*
X119452380Y-151523809D01*
X119785714Y-150333333D02*
X120452380Y-150333333D01*
X119785714Y-150761904D02*
X120309523Y-150761904D01*
X120404761Y-150714285D01*
X120452380Y-150619047D01*
X120452380Y-150476190D01*
X120404761Y-150380952D01*
X120357142Y-150333333D01*
%TO.C,4148*%
X115587904Y-30785714D02*
X115587904Y-31452380D01*
X115349809Y-30404761D02*
X115111714Y-31119047D01*
X115730761Y-31119047D01*
X116635523Y-31452380D02*
X116064095Y-31452380D01*
X116349809Y-31452380D02*
X116349809Y-30452380D01*
X116254571Y-30595238D01*
X116159333Y-30690476D01*
X116064095Y-30738095D01*
X117492666Y-30785714D02*
X117492666Y-31452380D01*
X117254571Y-30404761D02*
X117016476Y-31119047D01*
X117635523Y-31119047D01*
X118159333Y-30880952D02*
X118064095Y-30833333D01*
X118016476Y-30785714D01*
X117968857Y-30690476D01*
X117968857Y-30642857D01*
X118016476Y-30547619D01*
X118064095Y-30500000D01*
X118159333Y-30452380D01*
X118349809Y-30452380D01*
X118445047Y-30500000D01*
X118492666Y-30547619D01*
X118540285Y-30642857D01*
X118540285Y-30690476D01*
X118492666Y-30785714D01*
X118445047Y-30833333D01*
X118349809Y-30880952D01*
X118159333Y-30880952D01*
X118064095Y-30928571D01*
X118016476Y-30976190D01*
X117968857Y-31071428D01*
X117968857Y-31261904D01*
X118016476Y-31357142D01*
X118064095Y-31404761D01*
X118159333Y-31452380D01*
X118349809Y-31452380D01*
X118445047Y-31404761D01*
X118492666Y-31357142D01*
X118540285Y-31261904D01*
X118540285Y-31071428D01*
X118492666Y-30976190D01*
X118445047Y-30928571D01*
X118349809Y-30880952D01*
X115347904Y-34837714D02*
X115347904Y-35504380D01*
X115109809Y-34456761D02*
X114871714Y-35171047D01*
X115490761Y-35171047D01*
X116395523Y-35504380D02*
X115824095Y-35504380D01*
X116109809Y-35504380D02*
X116109809Y-34504380D01*
X116014571Y-34647238D01*
X115919333Y-34742476D01*
X115824095Y-34790095D01*
X117252666Y-34837714D02*
X117252666Y-35504380D01*
X117014571Y-34456761D02*
X116776476Y-35171047D01*
X117395523Y-35171047D01*
X117919333Y-34932952D02*
X117824095Y-34885333D01*
X117776476Y-34837714D01*
X117728857Y-34742476D01*
X117728857Y-34694857D01*
X117776476Y-34599619D01*
X117824095Y-34552000D01*
X117919333Y-34504380D01*
X118109809Y-34504380D01*
X118205047Y-34552000D01*
X118252666Y-34599619D01*
X118300285Y-34694857D01*
X118300285Y-34742476D01*
X118252666Y-34837714D01*
X118205047Y-34885333D01*
X118109809Y-34932952D01*
X117919333Y-34932952D01*
X117824095Y-34980571D01*
X117776476Y-35028190D01*
X117728857Y-35123428D01*
X117728857Y-35313904D01*
X117776476Y-35409142D01*
X117824095Y-35456761D01*
X117919333Y-35504380D01*
X118109809Y-35504380D01*
X118205047Y-35456761D01*
X118252666Y-35409142D01*
X118300285Y-35313904D01*
X118300285Y-35123428D01*
X118252666Y-35028190D01*
X118205047Y-34980571D01*
X118109809Y-34932952D01*
X115093904Y-58205714D02*
X115093904Y-58872380D01*
X114855809Y-57824761D02*
X114617714Y-58539047D01*
X115236761Y-58539047D01*
X116141523Y-58872380D02*
X115570095Y-58872380D01*
X115855809Y-58872380D02*
X115855809Y-57872380D01*
X115760571Y-58015238D01*
X115665333Y-58110476D01*
X115570095Y-58158095D01*
X116998666Y-58205714D02*
X116998666Y-58872380D01*
X116760571Y-57824761D02*
X116522476Y-58539047D01*
X117141523Y-58539047D01*
X117665333Y-58300952D02*
X117570095Y-58253333D01*
X117522476Y-58205714D01*
X117474857Y-58110476D01*
X117474857Y-58062857D01*
X117522476Y-57967619D01*
X117570095Y-57920000D01*
X117665333Y-57872380D01*
X117855809Y-57872380D01*
X117951047Y-57920000D01*
X117998666Y-57967619D01*
X118046285Y-58062857D01*
X118046285Y-58110476D01*
X117998666Y-58205714D01*
X117951047Y-58253333D01*
X117855809Y-58300952D01*
X117665333Y-58300952D01*
X117570095Y-58348571D01*
X117522476Y-58396190D01*
X117474857Y-58491428D01*
X117474857Y-58681904D01*
X117522476Y-58777142D01*
X117570095Y-58824761D01*
X117665333Y-58872380D01*
X117855809Y-58872380D01*
X117951047Y-58824761D01*
X117998666Y-58777142D01*
X118046285Y-58681904D01*
X118046285Y-58491428D01*
X117998666Y-58396190D01*
X117951047Y-58348571D01*
X117855809Y-58300952D01*
X115093904Y-62269714D02*
X115093904Y-62936380D01*
X114855809Y-61888761D02*
X114617714Y-62603047D01*
X115236761Y-62603047D01*
X116141523Y-62936380D02*
X115570095Y-62936380D01*
X115855809Y-62936380D02*
X115855809Y-61936380D01*
X115760571Y-62079238D01*
X115665333Y-62174476D01*
X115570095Y-62222095D01*
X116998666Y-62269714D02*
X116998666Y-62936380D01*
X116760571Y-61888761D02*
X116522476Y-62603047D01*
X117141523Y-62603047D01*
X117665333Y-62364952D02*
X117570095Y-62317333D01*
X117522476Y-62269714D01*
X117474857Y-62174476D01*
X117474857Y-62126857D01*
X117522476Y-62031619D01*
X117570095Y-61984000D01*
X117665333Y-61936380D01*
X117855809Y-61936380D01*
X117951047Y-61984000D01*
X117998666Y-62031619D01*
X118046285Y-62126857D01*
X118046285Y-62174476D01*
X117998666Y-62269714D01*
X117951047Y-62317333D01*
X117855809Y-62364952D01*
X117665333Y-62364952D01*
X117570095Y-62412571D01*
X117522476Y-62460190D01*
X117474857Y-62555428D01*
X117474857Y-62745904D01*
X117522476Y-62841142D01*
X117570095Y-62888761D01*
X117665333Y-62936380D01*
X117855809Y-62936380D01*
X117951047Y-62888761D01*
X117998666Y-62841142D01*
X118046285Y-62745904D01*
X118046285Y-62555428D01*
X117998666Y-62460190D01*
X117951047Y-62412571D01*
X117855809Y-62364952D01*
X115093904Y-91225714D02*
X115093904Y-91892380D01*
X114855809Y-90844761D02*
X114617714Y-91559047D01*
X115236761Y-91559047D01*
X116141523Y-91892380D02*
X115570095Y-91892380D01*
X115855809Y-91892380D02*
X115855809Y-90892380D01*
X115760571Y-91035238D01*
X115665333Y-91130476D01*
X115570095Y-91178095D01*
X116998666Y-91225714D02*
X116998666Y-91892380D01*
X116760571Y-90844761D02*
X116522476Y-91559047D01*
X117141523Y-91559047D01*
X117665333Y-91320952D02*
X117570095Y-91273333D01*
X117522476Y-91225714D01*
X117474857Y-91130476D01*
X117474857Y-91082857D01*
X117522476Y-90987619D01*
X117570095Y-90940000D01*
X117665333Y-90892380D01*
X117855809Y-90892380D01*
X117951047Y-90940000D01*
X117998666Y-90987619D01*
X118046285Y-91082857D01*
X118046285Y-91130476D01*
X117998666Y-91225714D01*
X117951047Y-91273333D01*
X117855809Y-91320952D01*
X117665333Y-91320952D01*
X117570095Y-91368571D01*
X117522476Y-91416190D01*
X117474857Y-91511428D01*
X117474857Y-91701904D01*
X117522476Y-91797142D01*
X117570095Y-91844761D01*
X117665333Y-91892380D01*
X117855809Y-91892380D01*
X117951047Y-91844761D01*
X117998666Y-91797142D01*
X118046285Y-91701904D01*
X118046285Y-91511428D01*
X117998666Y-91416190D01*
X117951047Y-91368571D01*
X117855809Y-91320952D01*
X115093904Y-95289714D02*
X115093904Y-95956380D01*
X114855809Y-94908761D02*
X114617714Y-95623047D01*
X115236761Y-95623047D01*
X116141523Y-95956380D02*
X115570095Y-95956380D01*
X115855809Y-95956380D02*
X115855809Y-94956380D01*
X115760571Y-95099238D01*
X115665333Y-95194476D01*
X115570095Y-95242095D01*
X116998666Y-95289714D02*
X116998666Y-95956380D01*
X116760571Y-94908761D02*
X116522476Y-95623047D01*
X117141523Y-95623047D01*
X117665333Y-95384952D02*
X117570095Y-95337333D01*
X117522476Y-95289714D01*
X117474857Y-95194476D01*
X117474857Y-95146857D01*
X117522476Y-95051619D01*
X117570095Y-95004000D01*
X117665333Y-94956380D01*
X117855809Y-94956380D01*
X117951047Y-95004000D01*
X117998666Y-95051619D01*
X118046285Y-95146857D01*
X118046285Y-95194476D01*
X117998666Y-95289714D01*
X117951047Y-95337333D01*
X117855809Y-95384952D01*
X117665333Y-95384952D01*
X117570095Y-95432571D01*
X117522476Y-95480190D01*
X117474857Y-95575428D01*
X117474857Y-95765904D01*
X117522476Y-95861142D01*
X117570095Y-95908761D01*
X117665333Y-95956380D01*
X117855809Y-95956380D01*
X117951047Y-95908761D01*
X117998666Y-95861142D01*
X118046285Y-95765904D01*
X118046285Y-95575428D01*
X117998666Y-95480190D01*
X117951047Y-95432571D01*
X117855809Y-95384952D01*
X115261904Y-136285714D02*
X115261904Y-136952380D01*
X115023809Y-135904761D02*
X114785714Y-136619047D01*
X115404761Y-136619047D01*
X116309523Y-136952380D02*
X115738095Y-136952380D01*
X116023809Y-136952380D02*
X116023809Y-135952380D01*
X115928571Y-136095238D01*
X115833333Y-136190476D01*
X115738095Y-136238095D01*
X117166666Y-136285714D02*
X117166666Y-136952380D01*
X116928571Y-135904761D02*
X116690476Y-136619047D01*
X117309523Y-136619047D01*
X117833333Y-136380952D02*
X117738095Y-136333333D01*
X117690476Y-136285714D01*
X117642857Y-136190476D01*
X117642857Y-136142857D01*
X117690476Y-136047619D01*
X117738095Y-136000000D01*
X117833333Y-135952380D01*
X118023809Y-135952380D01*
X118119047Y-136000000D01*
X118166666Y-136047619D01*
X118214285Y-136142857D01*
X118214285Y-136190476D01*
X118166666Y-136285714D01*
X118119047Y-136333333D01*
X118023809Y-136380952D01*
X117833333Y-136380952D01*
X117738095Y-136428571D01*
X117690476Y-136476190D01*
X117642857Y-136571428D01*
X117642857Y-136761904D01*
X117690476Y-136857142D01*
X117738095Y-136904761D01*
X117833333Y-136952380D01*
X118023809Y-136952380D01*
X118119047Y-136904761D01*
X118166666Y-136857142D01*
X118214285Y-136761904D01*
X118214285Y-136571428D01*
X118166666Y-136476190D01*
X118119047Y-136428571D01*
X118023809Y-136380952D01*
X115261904Y-140285714D02*
X115261904Y-140952380D01*
X115023809Y-139904761D02*
X114785714Y-140619047D01*
X115404761Y-140619047D01*
X116309523Y-140952380D02*
X115738095Y-140952380D01*
X116023809Y-140952380D02*
X116023809Y-139952380D01*
X115928571Y-140095238D01*
X115833333Y-140190476D01*
X115738095Y-140238095D01*
X117166666Y-140285714D02*
X117166666Y-140952380D01*
X116928571Y-139904761D02*
X116690476Y-140619047D01*
X117309523Y-140619047D01*
X117833333Y-140380952D02*
X117738095Y-140333333D01*
X117690476Y-140285714D01*
X117642857Y-140190476D01*
X117642857Y-140142857D01*
X117690476Y-140047619D01*
X117738095Y-140000000D01*
X117833333Y-139952380D01*
X118023809Y-139952380D01*
X118119047Y-140000000D01*
X118166666Y-140047619D01*
X118214285Y-140142857D01*
X118214285Y-140190476D01*
X118166666Y-140285714D01*
X118119047Y-140333333D01*
X118023809Y-140380952D01*
X117833333Y-140380952D01*
X117738095Y-140428571D01*
X117690476Y-140476190D01*
X117642857Y-140571428D01*
X117642857Y-140761904D01*
X117690476Y-140857142D01*
X117738095Y-140904761D01*
X117833333Y-140952380D01*
X118023809Y-140952380D01*
X118119047Y-140904761D01*
X118166666Y-140857142D01*
X118214285Y-140761904D01*
X118214285Y-140571428D01*
X118166666Y-140476190D01*
X118119047Y-140428571D01*
X118023809Y-140380952D01*
%TO.C,J1*%
X104922666Y-36048380D02*
X104922666Y-36762666D01*
X104875047Y-36905523D01*
X104779809Y-37000761D01*
X104636952Y-37048380D01*
X104541714Y-37048380D01*
X105922666Y-37048380D02*
X105351238Y-37048380D01*
X105636952Y-37048380D02*
X105636952Y-36048380D01*
X105541714Y-36191238D01*
X105446476Y-36286476D01*
X105351238Y-36334095D01*
X102616095Y-29980000D02*
X102520857Y-29932380D01*
X102378000Y-29932380D01*
X102235142Y-29980000D01*
X102139904Y-30075238D01*
X102092285Y-30170476D01*
X102044666Y-30360952D01*
X102044666Y-30503809D01*
X102092285Y-30694285D01*
X102139904Y-30789523D01*
X102235142Y-30884761D01*
X102378000Y-30932380D01*
X102473238Y-30932380D01*
X102616095Y-30884761D01*
X102663714Y-30837142D01*
X102663714Y-30503809D01*
X102473238Y-30503809D01*
X103092285Y-30932380D02*
X103092285Y-29932380D01*
X103663714Y-30932380D01*
X103663714Y-29932380D01*
X104139904Y-30932380D02*
X104139904Y-29932380D01*
X104378000Y-29932380D01*
X104520857Y-29980000D01*
X104616095Y-30075238D01*
X104663714Y-30170476D01*
X104711333Y-30360952D01*
X104711333Y-30503809D01*
X104663714Y-30694285D01*
X104616095Y-30789523D01*
X104520857Y-30884761D01*
X104378000Y-30932380D01*
X104139904Y-30932380D01*
X106164190Y-29932380D02*
X106735619Y-29932380D01*
X106449904Y-30932380D02*
X106449904Y-29932380D01*
X107068952Y-30932380D02*
X107068952Y-29932380D01*
X107545142Y-30932380D02*
X107545142Y-29932380D01*
X107926095Y-29932380D01*
X108021333Y-29980000D01*
X108068952Y-30027619D01*
X108116571Y-30122857D01*
X108116571Y-30265714D01*
X108068952Y-30360952D01*
X108021333Y-30408571D01*
X107926095Y-30456190D01*
X107545142Y-30456190D01*
%TO.C,J2*%
X104822666Y-44664380D02*
X104822666Y-45378666D01*
X104775047Y-45521523D01*
X104679809Y-45616761D01*
X104536952Y-45664380D01*
X104441714Y-45664380D01*
X105251238Y-44759619D02*
X105298857Y-44712000D01*
X105394095Y-44664380D01*
X105632190Y-44664380D01*
X105727428Y-44712000D01*
X105775047Y-44759619D01*
X105822666Y-44854857D01*
X105822666Y-44950095D01*
X105775047Y-45092952D01*
X105203619Y-45664380D01*
X105822666Y-45664380D01*
X102616095Y-38616000D02*
X102520857Y-38568380D01*
X102378000Y-38568380D01*
X102235142Y-38616000D01*
X102139904Y-38711238D01*
X102092285Y-38806476D01*
X102044666Y-38996952D01*
X102044666Y-39139809D01*
X102092285Y-39330285D01*
X102139904Y-39425523D01*
X102235142Y-39520761D01*
X102378000Y-39568380D01*
X102473238Y-39568380D01*
X102616095Y-39520761D01*
X102663714Y-39473142D01*
X102663714Y-39139809D01*
X102473238Y-39139809D01*
X103092285Y-39568380D02*
X103092285Y-38568380D01*
X103663714Y-39568380D01*
X103663714Y-38568380D01*
X104139904Y-39568380D02*
X104139904Y-38568380D01*
X104378000Y-38568380D01*
X104520857Y-38616000D01*
X104616095Y-38711238D01*
X104663714Y-38806476D01*
X104711333Y-38996952D01*
X104711333Y-39139809D01*
X104663714Y-39330285D01*
X104616095Y-39425523D01*
X104520857Y-39520761D01*
X104378000Y-39568380D01*
X104139904Y-39568380D01*
X106164190Y-38568380D02*
X106735619Y-38568380D01*
X106449904Y-39568380D02*
X106449904Y-38568380D01*
X107068952Y-39568380D02*
X107068952Y-38568380D01*
X107545142Y-39568380D02*
X107545142Y-38568380D01*
X107926095Y-38568380D01*
X108021333Y-38616000D01*
X108068952Y-38663619D01*
X108116571Y-38758857D01*
X108116571Y-38901714D01*
X108068952Y-38996952D01*
X108021333Y-39044571D01*
X107926095Y-39092190D01*
X107545142Y-39092190D01*
%TO.C,J3*%
X108288380Y-62817333D02*
X109002666Y-62817333D01*
X109145523Y-62864952D01*
X109240761Y-62960190D01*
X109288380Y-63103047D01*
X109288380Y-63198285D01*
X108288380Y-62436380D02*
X108288380Y-61817333D01*
X108669333Y-62150666D01*
X108669333Y-62007809D01*
X108716952Y-61912571D01*
X108764571Y-61864952D01*
X108859809Y-61817333D01*
X109097904Y-61817333D01*
X109193142Y-61864952D01*
X109240761Y-61912571D01*
X109288380Y-62007809D01*
X109288380Y-62293523D01*
X109240761Y-62388761D01*
X109193142Y-62436380D01*
X103274761Y-63341142D02*
X103322380Y-63198285D01*
X103322380Y-62960190D01*
X103274761Y-62864952D01*
X103227142Y-62817333D01*
X103131904Y-62769714D01*
X103036666Y-62769714D01*
X102941428Y-62817333D01*
X102893809Y-62864952D01*
X102846190Y-62960190D01*
X102798571Y-63150666D01*
X102750952Y-63245904D01*
X102703333Y-63293523D01*
X102608095Y-63341142D01*
X102512857Y-63341142D01*
X102417619Y-63293523D01*
X102370000Y-63245904D01*
X102322380Y-63150666D01*
X102322380Y-62912571D01*
X102370000Y-62769714D01*
X102322380Y-62436380D02*
X103322380Y-62198285D01*
X102608095Y-62007809D01*
X103322380Y-61817333D01*
X102322380Y-61579238D01*
X101862000Y-67055904D02*
X101814380Y-67151142D01*
X101814380Y-67294000D01*
X101862000Y-67436857D01*
X101957238Y-67532095D01*
X102052476Y-67579714D01*
X102242952Y-67627333D01*
X102385809Y-67627333D01*
X102576285Y-67579714D01*
X102671523Y-67532095D01*
X102766761Y-67436857D01*
X102814380Y-67294000D01*
X102814380Y-67198761D01*
X102766761Y-67055904D01*
X102719142Y-67008285D01*
X102385809Y-67008285D01*
X102385809Y-67198761D01*
X102814380Y-66579714D02*
X101814380Y-66579714D01*
X102814380Y-66008285D01*
X101814380Y-66008285D01*
X102814380Y-65532095D02*
X101814380Y-65532095D01*
X101814380Y-65294000D01*
X101862000Y-65151142D01*
X101957238Y-65055904D01*
X102052476Y-65008285D01*
X102242952Y-64960666D01*
X102385809Y-64960666D01*
X102576285Y-65008285D01*
X102671523Y-65055904D01*
X102766761Y-65151142D01*
X102814380Y-65294000D01*
X102814380Y-65532095D01*
X101814380Y-59697809D02*
X101814380Y-59126380D01*
X102814380Y-59412095D02*
X101814380Y-59412095D01*
X102814380Y-58793047D02*
X101814380Y-58793047D01*
X102814380Y-58316857D02*
X101814380Y-58316857D01*
X101814380Y-57935904D01*
X101862000Y-57840666D01*
X101909619Y-57793047D01*
X102004857Y-57745428D01*
X102147714Y-57745428D01*
X102242952Y-57793047D01*
X102290571Y-57840666D01*
X102338190Y-57935904D01*
X102338190Y-58316857D01*
%TO.C,J4*%
X108164380Y-74501333D02*
X108878666Y-74501333D01*
X109021523Y-74548952D01*
X109116761Y-74644190D01*
X109164380Y-74787047D01*
X109164380Y-74882285D01*
X108497714Y-73596571D02*
X109164380Y-73596571D01*
X108116761Y-73834666D02*
X108831047Y-74072761D01*
X108831047Y-73453714D01*
X101814380Y-73159809D02*
X101814380Y-72588380D01*
X102814380Y-72874095D02*
X101814380Y-72874095D01*
X102814380Y-72255047D02*
X101814380Y-72255047D01*
X102814380Y-71778857D02*
X101814380Y-71778857D01*
X101814380Y-71397904D01*
X101862000Y-71302666D01*
X101909619Y-71255047D01*
X102004857Y-71207428D01*
X102147714Y-71207428D01*
X102242952Y-71255047D01*
X102290571Y-71302666D01*
X102338190Y-71397904D01*
X102338190Y-71778857D01*
X101862000Y-76707904D02*
X101814380Y-76803142D01*
X101814380Y-76946000D01*
X101862000Y-77088857D01*
X101957238Y-77184095D01*
X102052476Y-77231714D01*
X102242952Y-77279333D01*
X102385809Y-77279333D01*
X102576285Y-77231714D01*
X102671523Y-77184095D01*
X102766761Y-77088857D01*
X102814380Y-76946000D01*
X102814380Y-76850761D01*
X102766761Y-76707904D01*
X102719142Y-76660285D01*
X102385809Y-76660285D01*
X102385809Y-76850761D01*
X102814380Y-76231714D02*
X101814380Y-76231714D01*
X102814380Y-75660285D01*
X101814380Y-75660285D01*
X102814380Y-75184095D02*
X101814380Y-75184095D01*
X101814380Y-74946000D01*
X101862000Y-74803142D01*
X101957238Y-74707904D01*
X102052476Y-74660285D01*
X102242952Y-74612666D01*
X102385809Y-74612666D01*
X102576285Y-74660285D01*
X102671523Y-74707904D01*
X102766761Y-74803142D01*
X102814380Y-74946000D01*
X102814380Y-75184095D01*
%TO.C,J5*%
X108164380Y-96091333D02*
X108878666Y-96091333D01*
X109021523Y-96138952D01*
X109116761Y-96234190D01*
X109164380Y-96377047D01*
X109164380Y-96472285D01*
X108164380Y-95138952D02*
X108164380Y-95615142D01*
X108640571Y-95662761D01*
X108592952Y-95615142D01*
X108545333Y-95519904D01*
X108545333Y-95281809D01*
X108592952Y-95186571D01*
X108640571Y-95138952D01*
X108735809Y-95091333D01*
X108973904Y-95091333D01*
X109069142Y-95138952D01*
X109116761Y-95186571D01*
X109164380Y-95281809D01*
X109164380Y-95519904D01*
X109116761Y-95615142D01*
X109069142Y-95662761D01*
X102068380Y-92971809D02*
X102068380Y-92400380D01*
X103068380Y-92686095D02*
X102068380Y-92686095D01*
X103068380Y-92067047D02*
X102068380Y-92067047D01*
X103068380Y-91590857D02*
X102068380Y-91590857D01*
X102068380Y-91209904D01*
X102116000Y-91114666D01*
X102163619Y-91067047D01*
X102258857Y-91019428D01*
X102401714Y-91019428D01*
X102496952Y-91067047D01*
X102544571Y-91114666D01*
X102592190Y-91209904D01*
X102592190Y-91590857D01*
X102116000Y-100329904D02*
X102068380Y-100425142D01*
X102068380Y-100568000D01*
X102116000Y-100710857D01*
X102211238Y-100806095D01*
X102306476Y-100853714D01*
X102496952Y-100901333D01*
X102639809Y-100901333D01*
X102830285Y-100853714D01*
X102925523Y-100806095D01*
X103020761Y-100710857D01*
X103068380Y-100568000D01*
X103068380Y-100472761D01*
X103020761Y-100329904D01*
X102973142Y-100282285D01*
X102639809Y-100282285D01*
X102639809Y-100472761D01*
X103068380Y-99853714D02*
X102068380Y-99853714D01*
X103068380Y-99282285D01*
X102068380Y-99282285D01*
X103068380Y-98806095D02*
X102068380Y-98806095D01*
X102068380Y-98568000D01*
X102116000Y-98425142D01*
X102211238Y-98329904D01*
X102306476Y-98282285D01*
X102496952Y-98234666D01*
X102639809Y-98234666D01*
X102830285Y-98282285D01*
X102925523Y-98329904D01*
X103020761Y-98425142D01*
X103068380Y-98568000D01*
X103068380Y-98806095D01*
X103528761Y-96615142D02*
X103576380Y-96472285D01*
X103576380Y-96234190D01*
X103528761Y-96138952D01*
X103481142Y-96091333D01*
X103385904Y-96043714D01*
X103290666Y-96043714D01*
X103195428Y-96091333D01*
X103147809Y-96138952D01*
X103100190Y-96234190D01*
X103052571Y-96424666D01*
X103004952Y-96519904D01*
X102957333Y-96567523D01*
X102862095Y-96615142D01*
X102766857Y-96615142D01*
X102671619Y-96567523D01*
X102624000Y-96519904D01*
X102576380Y-96424666D01*
X102576380Y-96186571D01*
X102624000Y-96043714D01*
X102576380Y-95710380D02*
X103576380Y-95472285D01*
X102862095Y-95281809D01*
X103576380Y-95091333D01*
X102576380Y-94853238D01*
%TO.C,J6*%
X108164380Y-107521333D02*
X108878666Y-107521333D01*
X109021523Y-107568952D01*
X109116761Y-107664190D01*
X109164380Y-107807047D01*
X109164380Y-107902285D01*
X108164380Y-106616571D02*
X108164380Y-106807047D01*
X108212000Y-106902285D01*
X108259619Y-106949904D01*
X108402476Y-107045142D01*
X108592952Y-107092761D01*
X108973904Y-107092761D01*
X109069142Y-107045142D01*
X109116761Y-106997523D01*
X109164380Y-106902285D01*
X109164380Y-106711809D01*
X109116761Y-106616571D01*
X109069142Y-106568952D01*
X108973904Y-106521333D01*
X108735809Y-106521333D01*
X108640571Y-106568952D01*
X108592952Y-106616571D01*
X108545333Y-106711809D01*
X108545333Y-106902285D01*
X108592952Y-106997523D01*
X108640571Y-107045142D01*
X108735809Y-107092761D01*
X102116000Y-109981904D02*
X102068380Y-110077142D01*
X102068380Y-110220000D01*
X102116000Y-110362857D01*
X102211238Y-110458095D01*
X102306476Y-110505714D01*
X102496952Y-110553333D01*
X102639809Y-110553333D01*
X102830285Y-110505714D01*
X102925523Y-110458095D01*
X103020761Y-110362857D01*
X103068380Y-110220000D01*
X103068380Y-110124761D01*
X103020761Y-109981904D01*
X102973142Y-109934285D01*
X102639809Y-109934285D01*
X102639809Y-110124761D01*
X103068380Y-109505714D02*
X102068380Y-109505714D01*
X103068380Y-108934285D01*
X102068380Y-108934285D01*
X103068380Y-108458095D02*
X102068380Y-108458095D01*
X102068380Y-108220000D01*
X102116000Y-108077142D01*
X102211238Y-107981904D01*
X102306476Y-107934285D01*
X102496952Y-107886666D01*
X102639809Y-107886666D01*
X102830285Y-107934285D01*
X102925523Y-107981904D01*
X103020761Y-108077142D01*
X103068380Y-108220000D01*
X103068380Y-108458095D01*
X102068380Y-106433809D02*
X102068380Y-105862380D01*
X103068380Y-106148095D02*
X102068380Y-106148095D01*
X103068380Y-105529047D02*
X102068380Y-105529047D01*
X103068380Y-105052857D02*
X102068380Y-105052857D01*
X102068380Y-104671904D01*
X102116000Y-104576666D01*
X102163619Y-104529047D01*
X102258857Y-104481428D01*
X102401714Y-104481428D01*
X102496952Y-104529047D01*
X102544571Y-104576666D01*
X102592190Y-104671904D01*
X102592190Y-105052857D01*
%TO.C,J7*%
X108292380Y-140953333D02*
X109006666Y-140953333D01*
X109149523Y-141000952D01*
X109244761Y-141096190D01*
X109292380Y-141239047D01*
X109292380Y-141334285D01*
X108292380Y-140572380D02*
X108292380Y-139905714D01*
X109292380Y-140334285D01*
X103528761Y-141827142D02*
X103576380Y-141684285D01*
X103576380Y-141446190D01*
X103528761Y-141350952D01*
X103481142Y-141303333D01*
X103385904Y-141255714D01*
X103290666Y-141255714D01*
X103195428Y-141303333D01*
X103147809Y-141350952D01*
X103100190Y-141446190D01*
X103052571Y-141636666D01*
X103004952Y-141731904D01*
X102957333Y-141779523D01*
X102862095Y-141827142D01*
X102766857Y-141827142D01*
X102671619Y-141779523D01*
X102624000Y-141731904D01*
X102576380Y-141636666D01*
X102576380Y-141398571D01*
X102624000Y-141255714D01*
X102576380Y-140922380D02*
X103576380Y-140684285D01*
X102862095Y-140493809D01*
X103576380Y-140303333D01*
X102576380Y-140065238D01*
X102116000Y-145541904D02*
X102068380Y-145637142D01*
X102068380Y-145780000D01*
X102116000Y-145922857D01*
X102211238Y-146018095D01*
X102306476Y-146065714D01*
X102496952Y-146113333D01*
X102639809Y-146113333D01*
X102830285Y-146065714D01*
X102925523Y-146018095D01*
X103020761Y-145922857D01*
X103068380Y-145780000D01*
X103068380Y-145684761D01*
X103020761Y-145541904D01*
X102973142Y-145494285D01*
X102639809Y-145494285D01*
X102639809Y-145684761D01*
X103068380Y-145065714D02*
X102068380Y-145065714D01*
X103068380Y-144494285D01*
X102068380Y-144494285D01*
X103068380Y-144018095D02*
X102068380Y-144018095D01*
X102068380Y-143780000D01*
X102116000Y-143637142D01*
X102211238Y-143541904D01*
X102306476Y-143494285D01*
X102496952Y-143446666D01*
X102639809Y-143446666D01*
X102830285Y-143494285D01*
X102925523Y-143541904D01*
X103020761Y-143637142D01*
X103068380Y-143780000D01*
X103068380Y-144018095D01*
X102068380Y-138183809D02*
X102068380Y-137612380D01*
X103068380Y-137898095D02*
X102068380Y-137898095D01*
X103068380Y-137279047D02*
X102068380Y-137279047D01*
X103068380Y-136802857D02*
X102068380Y-136802857D01*
X102068380Y-136421904D01*
X102116000Y-136326666D01*
X102163619Y-136279047D01*
X102258857Y-136231428D01*
X102401714Y-136231428D01*
X102496952Y-136279047D01*
X102544571Y-136326666D01*
X102592190Y-136421904D01*
X102592190Y-136802857D01*
%TO.C,J8*%
X108164380Y-153749333D02*
X108878666Y-153749333D01*
X109021523Y-153796952D01*
X109116761Y-153892190D01*
X109164380Y-154035047D01*
X109164380Y-154130285D01*
X108592952Y-153130285D02*
X108545333Y-153225523D01*
X108497714Y-153273142D01*
X108402476Y-153320761D01*
X108354857Y-153320761D01*
X108259619Y-153273142D01*
X108212000Y-153225523D01*
X108164380Y-153130285D01*
X108164380Y-152939809D01*
X108212000Y-152844571D01*
X108259619Y-152796952D01*
X108354857Y-152749333D01*
X108402476Y-152749333D01*
X108497714Y-152796952D01*
X108545333Y-152844571D01*
X108592952Y-152939809D01*
X108592952Y-153130285D01*
X108640571Y-153225523D01*
X108688190Y-153273142D01*
X108783428Y-153320761D01*
X108973904Y-153320761D01*
X109069142Y-153273142D01*
X109116761Y-153225523D01*
X109164380Y-153130285D01*
X109164380Y-152939809D01*
X109116761Y-152844571D01*
X109069142Y-152796952D01*
X108973904Y-152749333D01*
X108783428Y-152749333D01*
X108688190Y-152796952D01*
X108640571Y-152844571D01*
X108592952Y-152939809D01*
X102068380Y-152153809D02*
X102068380Y-151582380D01*
X103068380Y-151868095D02*
X102068380Y-151868095D01*
X103068380Y-151249047D02*
X102068380Y-151249047D01*
X103068380Y-150772857D02*
X102068380Y-150772857D01*
X102068380Y-150391904D01*
X102116000Y-150296666D01*
X102163619Y-150249047D01*
X102258857Y-150201428D01*
X102401714Y-150201428D01*
X102496952Y-150249047D01*
X102544571Y-150296666D01*
X102592190Y-150391904D01*
X102592190Y-150772857D01*
X102116000Y-155701904D02*
X102068380Y-155797142D01*
X102068380Y-155940000D01*
X102116000Y-156082857D01*
X102211238Y-156178095D01*
X102306476Y-156225714D01*
X102496952Y-156273333D01*
X102639809Y-156273333D01*
X102830285Y-156225714D01*
X102925523Y-156178095D01*
X103020761Y-156082857D01*
X103068380Y-155940000D01*
X103068380Y-155844761D01*
X103020761Y-155701904D01*
X102973142Y-155654285D01*
X102639809Y-155654285D01*
X102639809Y-155844761D01*
X103068380Y-155225714D02*
X102068380Y-155225714D01*
X103068380Y-154654285D01*
X102068380Y-154654285D01*
X103068380Y-154178095D02*
X102068380Y-154178095D01*
X102068380Y-153940000D01*
X102116000Y-153797142D01*
X102211238Y-153701904D01*
X102306476Y-153654285D01*
X102496952Y-153606666D01*
X102639809Y-153606666D01*
X102830285Y-153654285D01*
X102925523Y-153701904D01*
X103020761Y-153797142D01*
X103068380Y-153940000D01*
X103068380Y-154178095D01*
%TO.C,BS170*%
X142680571Y-34853333D02*
X142728190Y-34710476D01*
X142775809Y-34662857D01*
X142871047Y-34615238D01*
X143013904Y-34615238D01*
X143109142Y-34662857D01*
X143156761Y-34710476D01*
X143204380Y-34805714D01*
X143204380Y-35186666D01*
X142204380Y-35186666D01*
X142204380Y-34853333D01*
X142252000Y-34758095D01*
X142299619Y-34710476D01*
X142394857Y-34662857D01*
X142490095Y-34662857D01*
X142585333Y-34710476D01*
X142632952Y-34758095D01*
X142680571Y-34853333D01*
X142680571Y-35186666D01*
X143156761Y-34234285D02*
X143204380Y-34091428D01*
X143204380Y-33853333D01*
X143156761Y-33758095D01*
X143109142Y-33710476D01*
X143013904Y-33662857D01*
X142918666Y-33662857D01*
X142823428Y-33710476D01*
X142775809Y-33758095D01*
X142728190Y-33853333D01*
X142680571Y-34043809D01*
X142632952Y-34139047D01*
X142585333Y-34186666D01*
X142490095Y-34234285D01*
X142394857Y-34234285D01*
X142299619Y-34186666D01*
X142252000Y-34139047D01*
X142204380Y-34043809D01*
X142204380Y-33805714D01*
X142252000Y-33662857D01*
X143204380Y-32710476D02*
X143204380Y-33281904D01*
X143204380Y-32996190D02*
X142204380Y-32996190D01*
X142347238Y-33091428D01*
X142442476Y-33186666D01*
X142490095Y-33281904D01*
X142204380Y-32377142D02*
X142204380Y-31710476D01*
X143204380Y-32139047D01*
X142204380Y-31139047D02*
X142204380Y-31043809D01*
X142252000Y-30948571D01*
X142299619Y-30900952D01*
X142394857Y-30853333D01*
X142585333Y-30805714D01*
X142823428Y-30805714D01*
X143013904Y-30853333D01*
X143109142Y-30900952D01*
X143156761Y-30948571D01*
X143204380Y-31043809D01*
X143204380Y-31139047D01*
X143156761Y-31234285D01*
X143109142Y-31281904D01*
X143013904Y-31329523D01*
X142823428Y-31377142D01*
X142585333Y-31377142D01*
X142394857Y-31329523D01*
X142299619Y-31281904D01*
X142252000Y-31234285D01*
X142204380Y-31139047D01*
X142428571Y-61523333D02*
X142476190Y-61380476D01*
X142523809Y-61332857D01*
X142619047Y-61285238D01*
X142761904Y-61285238D01*
X142857142Y-61332857D01*
X142904761Y-61380476D01*
X142952380Y-61475714D01*
X142952380Y-61856666D01*
X141952380Y-61856666D01*
X141952380Y-61523333D01*
X142000000Y-61428095D01*
X142047619Y-61380476D01*
X142142857Y-61332857D01*
X142238095Y-61332857D01*
X142333333Y-61380476D01*
X142380952Y-61428095D01*
X142428571Y-61523333D01*
X142428571Y-61856666D01*
X142904761Y-60904285D02*
X142952380Y-60761428D01*
X142952380Y-60523333D01*
X142904761Y-60428095D01*
X142857142Y-60380476D01*
X142761904Y-60332857D01*
X142666666Y-60332857D01*
X142571428Y-60380476D01*
X142523809Y-60428095D01*
X142476190Y-60523333D01*
X142428571Y-60713809D01*
X142380952Y-60809047D01*
X142333333Y-60856666D01*
X142238095Y-60904285D01*
X142142857Y-60904285D01*
X142047619Y-60856666D01*
X142000000Y-60809047D01*
X141952380Y-60713809D01*
X141952380Y-60475714D01*
X142000000Y-60332857D01*
X142952380Y-59380476D02*
X142952380Y-59951904D01*
X142952380Y-59666190D02*
X141952380Y-59666190D01*
X142095238Y-59761428D01*
X142190476Y-59856666D01*
X142238095Y-59951904D01*
X141952380Y-59047142D02*
X141952380Y-58380476D01*
X142952380Y-58809047D01*
X141952380Y-57809047D02*
X141952380Y-57713809D01*
X142000000Y-57618571D01*
X142047619Y-57570952D01*
X142142857Y-57523333D01*
X142333333Y-57475714D01*
X142571428Y-57475714D01*
X142761904Y-57523333D01*
X142857142Y-57570952D01*
X142904761Y-57618571D01*
X142952380Y-57713809D01*
X142952380Y-57809047D01*
X142904761Y-57904285D01*
X142857142Y-57951904D01*
X142761904Y-57999523D01*
X142571428Y-58047142D01*
X142333333Y-58047142D01*
X142142857Y-57999523D01*
X142047619Y-57951904D01*
X142000000Y-57904285D01*
X141952380Y-57809047D01*
X142428571Y-102163333D02*
X142476190Y-102020476D01*
X142523809Y-101972857D01*
X142619047Y-101925238D01*
X142761904Y-101925238D01*
X142857142Y-101972857D01*
X142904761Y-102020476D01*
X142952380Y-102115714D01*
X142952380Y-102496666D01*
X141952380Y-102496666D01*
X141952380Y-102163333D01*
X142000000Y-102068095D01*
X142047619Y-102020476D01*
X142142857Y-101972857D01*
X142238095Y-101972857D01*
X142333333Y-102020476D01*
X142380952Y-102068095D01*
X142428571Y-102163333D01*
X142428571Y-102496666D01*
X142904761Y-101544285D02*
X142952380Y-101401428D01*
X142952380Y-101163333D01*
X142904761Y-101068095D01*
X142857142Y-101020476D01*
X142761904Y-100972857D01*
X142666666Y-100972857D01*
X142571428Y-101020476D01*
X142523809Y-101068095D01*
X142476190Y-101163333D01*
X142428571Y-101353809D01*
X142380952Y-101449047D01*
X142333333Y-101496666D01*
X142238095Y-101544285D01*
X142142857Y-101544285D01*
X142047619Y-101496666D01*
X142000000Y-101449047D01*
X141952380Y-101353809D01*
X141952380Y-101115714D01*
X142000000Y-100972857D01*
X142952380Y-100020476D02*
X142952380Y-100591904D01*
X142952380Y-100306190D02*
X141952380Y-100306190D01*
X142095238Y-100401428D01*
X142190476Y-100496666D01*
X142238095Y-100591904D01*
X141952380Y-99687142D02*
X141952380Y-99020476D01*
X142952380Y-99449047D01*
X141952380Y-98449047D02*
X141952380Y-98353809D01*
X142000000Y-98258571D01*
X142047619Y-98210952D01*
X142142857Y-98163333D01*
X142333333Y-98115714D01*
X142571428Y-98115714D01*
X142761904Y-98163333D01*
X142857142Y-98210952D01*
X142904761Y-98258571D01*
X142952380Y-98353809D01*
X142952380Y-98449047D01*
X142904761Y-98544285D01*
X142857142Y-98591904D01*
X142761904Y-98639523D01*
X142571428Y-98687142D01*
X142333333Y-98687142D01*
X142142857Y-98639523D01*
X142047619Y-98591904D01*
X142000000Y-98544285D01*
X141952380Y-98449047D01*
X142428571Y-141833333D02*
X142476190Y-141690476D01*
X142523809Y-141642857D01*
X142619047Y-141595238D01*
X142761904Y-141595238D01*
X142857142Y-141642857D01*
X142904761Y-141690476D01*
X142952380Y-141785714D01*
X142952380Y-142166666D01*
X141952380Y-142166666D01*
X141952380Y-141833333D01*
X142000000Y-141738095D01*
X142047619Y-141690476D01*
X142142857Y-141642857D01*
X142238095Y-141642857D01*
X142333333Y-141690476D01*
X142380952Y-141738095D01*
X142428571Y-141833333D01*
X142428571Y-142166666D01*
X142904761Y-141214285D02*
X142952380Y-141071428D01*
X142952380Y-140833333D01*
X142904761Y-140738095D01*
X142857142Y-140690476D01*
X142761904Y-140642857D01*
X142666666Y-140642857D01*
X142571428Y-140690476D01*
X142523809Y-140738095D01*
X142476190Y-140833333D01*
X142428571Y-141023809D01*
X142380952Y-141119047D01*
X142333333Y-141166666D01*
X142238095Y-141214285D01*
X142142857Y-141214285D01*
X142047619Y-141166666D01*
X142000000Y-141119047D01*
X141952380Y-141023809D01*
X141952380Y-140785714D01*
X142000000Y-140642857D01*
X142952380Y-139690476D02*
X142952380Y-140261904D01*
X142952380Y-139976190D02*
X141952380Y-139976190D01*
X142095238Y-140071428D01*
X142190476Y-140166666D01*
X142238095Y-140261904D01*
X141952380Y-139357142D02*
X141952380Y-138690476D01*
X142952380Y-139119047D01*
X141952380Y-138119047D02*
X141952380Y-138023809D01*
X142000000Y-137928571D01*
X142047619Y-137880952D01*
X142142857Y-137833333D01*
X142333333Y-137785714D01*
X142571428Y-137785714D01*
X142761904Y-137833333D01*
X142857142Y-137880952D01*
X142904761Y-137928571D01*
X142952380Y-138023809D01*
X142952380Y-138119047D01*
X142904761Y-138214285D01*
X142857142Y-138261904D01*
X142761904Y-138309523D01*
X142571428Y-138357142D01*
X142333333Y-138357142D01*
X142142857Y-138309523D01*
X142047619Y-138261904D01*
X142000000Y-138214285D01*
X141952380Y-138119047D01*
%TO.C,10M*%
X128270095Y-31440380D02*
X127698666Y-31440380D01*
X127984380Y-31440380D02*
X127984380Y-30440380D01*
X127889142Y-30583238D01*
X127793904Y-30678476D01*
X127698666Y-30726095D01*
X128889142Y-30440380D02*
X128984380Y-30440380D01*
X129079619Y-30488000D01*
X129127238Y-30535619D01*
X129174857Y-30630857D01*
X129222476Y-30821333D01*
X129222476Y-31059428D01*
X129174857Y-31249904D01*
X129127238Y-31345142D01*
X129079619Y-31392761D01*
X128984380Y-31440380D01*
X128889142Y-31440380D01*
X128793904Y-31392761D01*
X128746285Y-31345142D01*
X128698666Y-31249904D01*
X128651047Y-31059428D01*
X128651047Y-30821333D01*
X128698666Y-30630857D01*
X128746285Y-30535619D01*
X128793904Y-30488000D01*
X128889142Y-30440380D01*
X129651047Y-31440380D02*
X129651047Y-30440380D01*
X129984380Y-31154666D01*
X130317714Y-30440380D01*
X130317714Y-31440380D01*
X128270095Y-35504380D02*
X127698666Y-35504380D01*
X127984380Y-35504380D02*
X127984380Y-34504380D01*
X127889142Y-34647238D01*
X127793904Y-34742476D01*
X127698666Y-34790095D01*
X128889142Y-34504380D02*
X128984380Y-34504380D01*
X129079619Y-34552000D01*
X129127238Y-34599619D01*
X129174857Y-34694857D01*
X129222476Y-34885333D01*
X129222476Y-35123428D01*
X129174857Y-35313904D01*
X129127238Y-35409142D01*
X129079619Y-35456761D01*
X128984380Y-35504380D01*
X128889142Y-35504380D01*
X128793904Y-35456761D01*
X128746285Y-35409142D01*
X128698666Y-35313904D01*
X128651047Y-35123428D01*
X128651047Y-34885333D01*
X128698666Y-34694857D01*
X128746285Y-34599619D01*
X128793904Y-34552000D01*
X128889142Y-34504380D01*
X129651047Y-35504380D02*
X129651047Y-34504380D01*
X129984380Y-35218666D01*
X130317714Y-34504380D01*
X130317714Y-35504380D01*
%TO.C,5K1*%
X128293904Y-38314380D02*
X127817714Y-38314380D01*
X127770095Y-38790571D01*
X127817714Y-38742952D01*
X127912952Y-38695333D01*
X128151047Y-38695333D01*
X128246285Y-38742952D01*
X128293904Y-38790571D01*
X128341523Y-38885809D01*
X128341523Y-39123904D01*
X128293904Y-39219142D01*
X128246285Y-39266761D01*
X128151047Y-39314380D01*
X127912952Y-39314380D01*
X127817714Y-39266761D01*
X127770095Y-39219142D01*
X128770095Y-39314380D02*
X128770095Y-38314380D01*
X129341523Y-39314380D02*
X128912952Y-38742952D01*
X129341523Y-38314380D02*
X128770095Y-38885809D01*
X130293904Y-39314380D02*
X129722476Y-39314380D01*
X130008190Y-39314380D02*
X130008190Y-38314380D01*
X129912952Y-38457238D01*
X129817714Y-38552476D01*
X129722476Y-38600095D01*
%TO.C,100K*%
X138279333Y-39314380D02*
X137707904Y-39314380D01*
X137993619Y-39314380D02*
X137993619Y-38314380D01*
X137898380Y-38457238D01*
X137803142Y-38552476D01*
X137707904Y-38600095D01*
X138898380Y-38314380D02*
X138993619Y-38314380D01*
X139088857Y-38362000D01*
X139136476Y-38409619D01*
X139184095Y-38504857D01*
X139231714Y-38695333D01*
X139231714Y-38933428D01*
X139184095Y-39123904D01*
X139136476Y-39219142D01*
X139088857Y-39266761D01*
X138993619Y-39314380D01*
X138898380Y-39314380D01*
X138803142Y-39266761D01*
X138755523Y-39219142D01*
X138707904Y-39123904D01*
X138660285Y-38933428D01*
X138660285Y-38695333D01*
X138707904Y-38504857D01*
X138755523Y-38409619D01*
X138803142Y-38362000D01*
X138898380Y-38314380D01*
X139850761Y-38314380D02*
X139946000Y-38314380D01*
X140041238Y-38362000D01*
X140088857Y-38409619D01*
X140136476Y-38504857D01*
X140184095Y-38695333D01*
X140184095Y-38933428D01*
X140136476Y-39123904D01*
X140088857Y-39219142D01*
X140041238Y-39266761D01*
X139946000Y-39314380D01*
X139850761Y-39314380D01*
X139755523Y-39266761D01*
X139707904Y-39219142D01*
X139660285Y-39123904D01*
X139612666Y-38933428D01*
X139612666Y-38695333D01*
X139660285Y-38504857D01*
X139707904Y-38409619D01*
X139755523Y-38362000D01*
X139850761Y-38314380D01*
X140612666Y-39314380D02*
X140612666Y-38314380D01*
X141184095Y-39314380D02*
X140755523Y-38742952D01*
X141184095Y-38314380D02*
X140612666Y-38885809D01*
%TO.C,10M*%
X128778095Y-58872380D02*
X128206666Y-58872380D01*
X128492380Y-58872380D02*
X128492380Y-57872380D01*
X128397142Y-58015238D01*
X128301904Y-58110476D01*
X128206666Y-58158095D01*
X129397142Y-57872380D02*
X129492380Y-57872380D01*
X129587619Y-57920000D01*
X129635238Y-57967619D01*
X129682857Y-58062857D01*
X129730476Y-58253333D01*
X129730476Y-58491428D01*
X129682857Y-58681904D01*
X129635238Y-58777142D01*
X129587619Y-58824761D01*
X129492380Y-58872380D01*
X129397142Y-58872380D01*
X129301904Y-58824761D01*
X129254285Y-58777142D01*
X129206666Y-58681904D01*
X129159047Y-58491428D01*
X129159047Y-58253333D01*
X129206666Y-58062857D01*
X129254285Y-57967619D01*
X129301904Y-57920000D01*
X129397142Y-57872380D01*
X130159047Y-58872380D02*
X130159047Y-57872380D01*
X130492380Y-58586666D01*
X130825714Y-57872380D01*
X130825714Y-58872380D01*
X128778095Y-62936380D02*
X128206666Y-62936380D01*
X128492380Y-62936380D02*
X128492380Y-61936380D01*
X128397142Y-62079238D01*
X128301904Y-62174476D01*
X128206666Y-62222095D01*
X129397142Y-61936380D02*
X129492380Y-61936380D01*
X129587619Y-61984000D01*
X129635238Y-62031619D01*
X129682857Y-62126857D01*
X129730476Y-62317333D01*
X129730476Y-62555428D01*
X129682857Y-62745904D01*
X129635238Y-62841142D01*
X129587619Y-62888761D01*
X129492380Y-62936380D01*
X129397142Y-62936380D01*
X129301904Y-62888761D01*
X129254285Y-62841142D01*
X129206666Y-62745904D01*
X129159047Y-62555428D01*
X129159047Y-62317333D01*
X129206666Y-62126857D01*
X129254285Y-62031619D01*
X129301904Y-61984000D01*
X129397142Y-61936380D01*
X130159047Y-62936380D02*
X130159047Y-61936380D01*
X130492380Y-62650666D01*
X130825714Y-61936380D01*
X130825714Y-62936380D01*
%TO.C,5K1*%
X128761904Y-65492380D02*
X128285714Y-65492380D01*
X128238095Y-65968571D01*
X128285714Y-65920952D01*
X128380952Y-65873333D01*
X128619047Y-65873333D01*
X128714285Y-65920952D01*
X128761904Y-65968571D01*
X128809523Y-66063809D01*
X128809523Y-66301904D01*
X128761904Y-66397142D01*
X128714285Y-66444761D01*
X128619047Y-66492380D01*
X128380952Y-66492380D01*
X128285714Y-66444761D01*
X128238095Y-66397142D01*
X129238095Y-66492380D02*
X129238095Y-65492380D01*
X129809523Y-66492380D02*
X129380952Y-65920952D01*
X129809523Y-65492380D02*
X129238095Y-66063809D01*
X130761904Y-66492380D02*
X130190476Y-66492380D01*
X130476190Y-66492380D02*
X130476190Y-65492380D01*
X130380952Y-65635238D01*
X130285714Y-65730476D01*
X130190476Y-65778095D01*
%TO.C,100K*%
X128373333Y-70452380D02*
X127801904Y-70452380D01*
X128087619Y-70452380D02*
X128087619Y-69452380D01*
X127992380Y-69595238D01*
X127897142Y-69690476D01*
X127801904Y-69738095D01*
X128992380Y-69452380D02*
X129087619Y-69452380D01*
X129182857Y-69500000D01*
X129230476Y-69547619D01*
X129278095Y-69642857D01*
X129325714Y-69833333D01*
X129325714Y-70071428D01*
X129278095Y-70261904D01*
X129230476Y-70357142D01*
X129182857Y-70404761D01*
X129087619Y-70452380D01*
X128992380Y-70452380D01*
X128897142Y-70404761D01*
X128849523Y-70357142D01*
X128801904Y-70261904D01*
X128754285Y-70071428D01*
X128754285Y-69833333D01*
X128801904Y-69642857D01*
X128849523Y-69547619D01*
X128897142Y-69500000D01*
X128992380Y-69452380D01*
X129944761Y-69452380D02*
X130040000Y-69452380D01*
X130135238Y-69500000D01*
X130182857Y-69547619D01*
X130230476Y-69642857D01*
X130278095Y-69833333D01*
X130278095Y-70071428D01*
X130230476Y-70261904D01*
X130182857Y-70357142D01*
X130135238Y-70404761D01*
X130040000Y-70452380D01*
X129944761Y-70452380D01*
X129849523Y-70404761D01*
X129801904Y-70357142D01*
X129754285Y-70261904D01*
X129706666Y-70071428D01*
X129706666Y-69833333D01*
X129754285Y-69642857D01*
X129801904Y-69547619D01*
X129849523Y-69500000D01*
X129944761Y-69452380D01*
X130706666Y-70452380D02*
X130706666Y-69452380D01*
X131278095Y-70452380D02*
X130849523Y-69880952D01*
X131278095Y-69452380D02*
X130706666Y-70023809D01*
%TO.C,10M*%
X128524095Y-92400380D02*
X127952666Y-92400380D01*
X128238380Y-92400380D02*
X128238380Y-91400380D01*
X128143142Y-91543238D01*
X128047904Y-91638476D01*
X127952666Y-91686095D01*
X129143142Y-91400380D02*
X129238380Y-91400380D01*
X129333619Y-91448000D01*
X129381238Y-91495619D01*
X129428857Y-91590857D01*
X129476476Y-91781333D01*
X129476476Y-92019428D01*
X129428857Y-92209904D01*
X129381238Y-92305142D01*
X129333619Y-92352761D01*
X129238380Y-92400380D01*
X129143142Y-92400380D01*
X129047904Y-92352761D01*
X129000285Y-92305142D01*
X128952666Y-92209904D01*
X128905047Y-92019428D01*
X128905047Y-91781333D01*
X128952666Y-91590857D01*
X129000285Y-91495619D01*
X129047904Y-91448000D01*
X129143142Y-91400380D01*
X129905047Y-92400380D02*
X129905047Y-91400380D01*
X130238380Y-92114666D01*
X130571714Y-91400380D01*
X130571714Y-92400380D01*
X128524095Y-95448380D02*
X127952666Y-95448380D01*
X128238380Y-95448380D02*
X128238380Y-94448380D01*
X128143142Y-94591238D01*
X128047904Y-94686476D01*
X127952666Y-94734095D01*
X129143142Y-94448380D02*
X129238380Y-94448380D01*
X129333619Y-94496000D01*
X129381238Y-94543619D01*
X129428857Y-94638857D01*
X129476476Y-94829333D01*
X129476476Y-95067428D01*
X129428857Y-95257904D01*
X129381238Y-95353142D01*
X129333619Y-95400761D01*
X129238380Y-95448380D01*
X129143142Y-95448380D01*
X129047904Y-95400761D01*
X129000285Y-95353142D01*
X128952666Y-95257904D01*
X128905047Y-95067428D01*
X128905047Y-94829333D01*
X128952666Y-94638857D01*
X129000285Y-94543619D01*
X129047904Y-94496000D01*
X129143142Y-94448380D01*
X129905047Y-95448380D02*
X129905047Y-94448380D01*
X130238380Y-95162666D01*
X130571714Y-94448380D01*
X130571714Y-95448380D01*
%TO.C,5K1*%
X128547904Y-98512380D02*
X128071714Y-98512380D01*
X128024095Y-98988571D01*
X128071714Y-98940952D01*
X128166952Y-98893333D01*
X128405047Y-98893333D01*
X128500285Y-98940952D01*
X128547904Y-98988571D01*
X128595523Y-99083809D01*
X128595523Y-99321904D01*
X128547904Y-99417142D01*
X128500285Y-99464761D01*
X128405047Y-99512380D01*
X128166952Y-99512380D01*
X128071714Y-99464761D01*
X128024095Y-99417142D01*
X129024095Y-99512380D02*
X129024095Y-98512380D01*
X129595523Y-99512380D02*
X129166952Y-98940952D01*
X129595523Y-98512380D02*
X129024095Y-99083809D01*
X130547904Y-99512380D02*
X129976476Y-99512380D01*
X130262190Y-99512380D02*
X130262190Y-98512380D01*
X130166952Y-98655238D01*
X130071714Y-98750476D01*
X129976476Y-98798095D01*
%TO.C,100K*%
X128119333Y-103576380D02*
X127547904Y-103576380D01*
X127833619Y-103576380D02*
X127833619Y-102576380D01*
X127738380Y-102719238D01*
X127643142Y-102814476D01*
X127547904Y-102862095D01*
X128738380Y-102576380D02*
X128833619Y-102576380D01*
X128928857Y-102624000D01*
X128976476Y-102671619D01*
X129024095Y-102766857D01*
X129071714Y-102957333D01*
X129071714Y-103195428D01*
X129024095Y-103385904D01*
X128976476Y-103481142D01*
X128928857Y-103528761D01*
X128833619Y-103576380D01*
X128738380Y-103576380D01*
X128643142Y-103528761D01*
X128595523Y-103481142D01*
X128547904Y-103385904D01*
X128500285Y-103195428D01*
X128500285Y-102957333D01*
X128547904Y-102766857D01*
X128595523Y-102671619D01*
X128643142Y-102624000D01*
X128738380Y-102576380D01*
X129690761Y-102576380D02*
X129786000Y-102576380D01*
X129881238Y-102624000D01*
X129928857Y-102671619D01*
X129976476Y-102766857D01*
X130024095Y-102957333D01*
X130024095Y-103195428D01*
X129976476Y-103385904D01*
X129928857Y-103481142D01*
X129881238Y-103528761D01*
X129786000Y-103576380D01*
X129690761Y-103576380D01*
X129595523Y-103528761D01*
X129547904Y-103481142D01*
X129500285Y-103385904D01*
X129452666Y-103195428D01*
X129452666Y-102957333D01*
X129500285Y-102766857D01*
X129547904Y-102671619D01*
X129595523Y-102624000D01*
X129690761Y-102576380D01*
X130452666Y-103576380D02*
X130452666Y-102576380D01*
X131024095Y-103576380D02*
X130595523Y-103004952D01*
X131024095Y-102576380D02*
X130452666Y-103147809D01*
%TO.C,10M*%
X128016095Y-136959379D02*
X127444666Y-136959379D01*
X127730380Y-136959379D02*
X127730380Y-135959379D01*
X127635142Y-136102237D01*
X127539904Y-136197475D01*
X127444666Y-136245094D01*
X128635142Y-135959379D02*
X128730380Y-135959379D01*
X128825619Y-136006999D01*
X128873238Y-136054618D01*
X128920857Y-136149856D01*
X128968476Y-136340332D01*
X128968476Y-136578427D01*
X128920857Y-136768903D01*
X128873238Y-136864141D01*
X128825619Y-136911760D01*
X128730380Y-136959379D01*
X128635142Y-136959379D01*
X128539904Y-136911760D01*
X128492285Y-136864141D01*
X128444666Y-136768903D01*
X128397047Y-136578427D01*
X128397047Y-136340332D01*
X128444666Y-136149856D01*
X128492285Y-136054618D01*
X128539904Y-136006999D01*
X128635142Y-135959379D01*
X129397047Y-136959379D02*
X129397047Y-135959379D01*
X129730380Y-136673665D01*
X130063714Y-135959379D01*
X130063714Y-136959379D01*
X127738095Y-140995379D02*
X127166666Y-140995379D01*
X127452380Y-140995379D02*
X127452380Y-139995379D01*
X127357142Y-140138237D01*
X127261904Y-140233475D01*
X127166666Y-140281094D01*
X128357142Y-139995379D02*
X128452380Y-139995379D01*
X128547619Y-140042999D01*
X128595238Y-140090618D01*
X128642857Y-140185856D01*
X128690476Y-140376332D01*
X128690476Y-140614427D01*
X128642857Y-140804903D01*
X128595238Y-140900141D01*
X128547619Y-140947760D01*
X128452380Y-140995379D01*
X128357142Y-140995379D01*
X128261904Y-140947760D01*
X128214285Y-140900141D01*
X128166666Y-140804903D01*
X128119047Y-140614427D01*
X128119047Y-140376332D01*
X128166666Y-140185856D01*
X128214285Y-140090618D01*
X128261904Y-140042999D01*
X128357142Y-139995379D01*
X129119047Y-140995379D02*
X129119047Y-139995379D01*
X129452380Y-140709665D01*
X129785714Y-139995379D01*
X129785714Y-140995379D01*
%TO.C,5K1*%
X128022903Y-143593379D02*
X127546713Y-143593379D01*
X127499094Y-144069570D01*
X127546713Y-144021951D01*
X127641951Y-143974332D01*
X127880046Y-143974332D01*
X127975284Y-144021951D01*
X128022903Y-144069570D01*
X128070522Y-144164808D01*
X128070522Y-144402903D01*
X128022903Y-144498141D01*
X127975284Y-144545760D01*
X127880046Y-144593379D01*
X127641951Y-144593379D01*
X127546713Y-144545760D01*
X127499094Y-144498141D01*
X128499094Y-144593379D02*
X128499094Y-143593379D01*
X129070522Y-144593379D02*
X128641951Y-144021951D01*
X129070522Y-143593379D02*
X128499094Y-144164808D01*
X130022903Y-144593379D02*
X129451475Y-144593379D01*
X129737189Y-144593379D02*
X129737189Y-143593379D01*
X129641951Y-143736237D01*
X129546713Y-143831475D01*
X129451475Y-143879094D01*
%TO.C,100K*%
X127611333Y-148385379D02*
X127039904Y-148385379D01*
X127325619Y-148385379D02*
X127325619Y-147385379D01*
X127230380Y-147528237D01*
X127135142Y-147623475D01*
X127039904Y-147671094D01*
X128230380Y-147385379D02*
X128325619Y-147385379D01*
X128420857Y-147432999D01*
X128468476Y-147480618D01*
X128516095Y-147575856D01*
X128563714Y-147766332D01*
X128563714Y-148004427D01*
X128516095Y-148194903D01*
X128468476Y-148290141D01*
X128420857Y-148337760D01*
X128325619Y-148385379D01*
X128230380Y-148385379D01*
X128135142Y-148337760D01*
X128087523Y-148290141D01*
X128039904Y-148194903D01*
X127992285Y-148004427D01*
X127992285Y-147766332D01*
X128039904Y-147575856D01*
X128087523Y-147480618D01*
X128135142Y-147432999D01*
X128230380Y-147385379D01*
X129182761Y-147385379D02*
X129278000Y-147385379D01*
X129373238Y-147432999D01*
X129420857Y-147480618D01*
X129468476Y-147575856D01*
X129516095Y-147766332D01*
X129516095Y-148004427D01*
X129468476Y-148194903D01*
X129420857Y-148290141D01*
X129373238Y-148337760D01*
X129278000Y-148385379D01*
X129182761Y-148385379D01*
X129087523Y-148337760D01*
X129039904Y-148290141D01*
X128992285Y-148194903D01*
X128944666Y-148004427D01*
X128944666Y-147766332D01*
X128992285Y-147575856D01*
X129039904Y-147480618D01*
X129087523Y-147432999D01*
X129182761Y-147385379D01*
X129944666Y-148385379D02*
X129944666Y-147385379D01*
X130516095Y-148385379D02*
X130087523Y-147813951D01*
X130516095Y-147385379D02*
X129944666Y-147956808D01*
%TO.C,RV1*%
X152404761Y-28252380D02*
X152071428Y-27776190D01*
X151833333Y-28252380D02*
X151833333Y-27252380D01*
X152214285Y-27252380D01*
X152309523Y-27300000D01*
X152357142Y-27347619D01*
X152404761Y-27442857D01*
X152404761Y-27585714D01*
X152357142Y-27680952D01*
X152309523Y-27728571D01*
X152214285Y-27776190D01*
X151833333Y-27776190D01*
X152690476Y-27252380D02*
X153023809Y-28252380D01*
X153357142Y-27252380D01*
X154214285Y-28252380D02*
X153642857Y-28252380D01*
X153928571Y-28252380D02*
X153928571Y-27252380D01*
X153833333Y-27395238D01*
X153738095Y-27490476D01*
X153642857Y-27538095D01*
%TO.C,RV2*%
X152404761Y-64252380D02*
X152071428Y-63776190D01*
X151833333Y-64252380D02*
X151833333Y-63252380D01*
X152214285Y-63252380D01*
X152309523Y-63300000D01*
X152357142Y-63347619D01*
X152404761Y-63442857D01*
X152404761Y-63585714D01*
X152357142Y-63680952D01*
X152309523Y-63728571D01*
X152214285Y-63776190D01*
X151833333Y-63776190D01*
X152690476Y-63252380D02*
X153023809Y-64252380D01*
X153357142Y-63252380D01*
X153642857Y-63347619D02*
X153690476Y-63300000D01*
X153785714Y-63252380D01*
X154023809Y-63252380D01*
X154119047Y-63300000D01*
X154166666Y-63347619D01*
X154214285Y-63442857D01*
X154214285Y-63538095D01*
X154166666Y-63680952D01*
X153595238Y-64252380D01*
X154214285Y-64252380D01*
%TO.C,RV3*%
X152404761Y-100252380D02*
X152071428Y-99776190D01*
X151833333Y-100252380D02*
X151833333Y-99252380D01*
X152214285Y-99252380D01*
X152309523Y-99300000D01*
X152357142Y-99347619D01*
X152404761Y-99442857D01*
X152404761Y-99585714D01*
X152357142Y-99680952D01*
X152309523Y-99728571D01*
X152214285Y-99776190D01*
X151833333Y-99776190D01*
X152690476Y-99252380D02*
X153023809Y-100252380D01*
X153357142Y-99252380D01*
X153595238Y-99252380D02*
X154214285Y-99252380D01*
X153880952Y-99633333D01*
X154023809Y-99633333D01*
X154119047Y-99680952D01*
X154166666Y-99728571D01*
X154214285Y-99823809D01*
X154214285Y-100061904D01*
X154166666Y-100157142D01*
X154119047Y-100204761D01*
X154023809Y-100252380D01*
X153738095Y-100252380D01*
X153642857Y-100204761D01*
X153595238Y-100157142D01*
%TO.C,RV4*%
X152404761Y-136252380D02*
X152071428Y-135776190D01*
X151833333Y-136252380D02*
X151833333Y-135252380D01*
X152214285Y-135252380D01*
X152309523Y-135300000D01*
X152357142Y-135347619D01*
X152404761Y-135442857D01*
X152404761Y-135585714D01*
X152357142Y-135680952D01*
X152309523Y-135728571D01*
X152214285Y-135776190D01*
X151833333Y-135776190D01*
X152690476Y-135252380D02*
X153023809Y-136252380D01*
X153357142Y-135252380D01*
X154119047Y-135585714D02*
X154119047Y-136252380D01*
X153880952Y-135204761D02*
X153642857Y-135919047D01*
X154261904Y-135919047D01*
%TD*%
M02*
