%TF.GenerationSoftware,KiCad,Pcbnew,(5.1.10)-1*%
%TF.CreationDate,2022-04-21T20:11:48-04:00*%
%TF.ProjectId,ELC Eargensplitter,454c4320-4561-4726-9765-6e73706c6974,rev?*%
%TF.SameCoordinates,Original*%
%TF.FileFunction,Soldermask,Bot*%
%TF.FilePolarity,Negative*%
%FSLAX46Y46*%
G04 Gerber Fmt 4.6, Leading zero omitted, Abs format (unit mm)*
G04 Created by KiCad (PCBNEW (5.1.10)-1) date 2022-04-21 20:11:48*
%MOMM*%
%LPD*%
G01*
G04 APERTURE LIST*
%ADD10R,1.700000X1.700000*%
%ADD11O,1.700000X1.700000*%
%ADD12C,1.400000*%
%ADD13C,1.600000*%
%ADD14R,1.600000X1.600000*%
%ADD15O,2.200000X2.200000*%
%ADD16R,2.200000X2.200000*%
%ADD17C,3.000000*%
%ADD18O,1.500000X1.050000*%
%ADD19R,1.500000X1.050000*%
%ADD20O,1.600000X1.600000*%
%ADD21C,2.340000*%
G04 APERTURE END LIST*
D10*
%TO.C,J9*%
X127762000Y-154432000D03*
D11*
X132842000Y-156972000D03*
X130302000Y-154432000D03*
X130302000Y-156972000D03*
X137922000Y-154432000D03*
X127762000Y-156972000D03*
X135382000Y-154432000D03*
X135382000Y-156972000D03*
X132842000Y-154432000D03*
X137922000Y-156972000D03*
%TD*%
D12*
%TO.C,100n*%
X111546000Y-38862000D03*
X114046000Y-38862000D03*
%TD*%
D13*
%TO.C,10u*%
X119634000Y-39156000D03*
D14*
X119634000Y-41656000D03*
%TD*%
D12*
%TO.C,100n*%
X111760000Y-66040000D03*
X114260000Y-66040000D03*
%TD*%
D13*
%TO.C,10u*%
X119380000Y-68620000D03*
D14*
X119380000Y-71120000D03*
%TD*%
D12*
%TO.C,100n*%
X114260000Y-99060000D03*
X111760000Y-99060000D03*
%TD*%
D14*
%TO.C,10u*%
X117348000Y-108204000D03*
D13*
X117348000Y-105704000D03*
%TD*%
D12*
%TO.C,100n*%
X111760000Y-144780000D03*
X114260000Y-144780000D03*
%TD*%
D14*
%TO.C,10u*%
X116332000Y-152908000D03*
D13*
X116332000Y-150408000D03*
%TD*%
D15*
%TO.C,4148*%
X111760000Y-30988000D03*
D16*
X121920000Y-30988000D03*
%TD*%
%TO.C,4148*%
X122000000Y-35000000D03*
D15*
X111840000Y-35000000D03*
%TD*%
%TO.C,4148*%
X111760000Y-58420000D03*
D16*
X121920000Y-58420000D03*
%TD*%
%TO.C,4148*%
X121920000Y-62230000D03*
D15*
X111760000Y-62230000D03*
%TD*%
%TO.C,4148*%
X111760000Y-91440000D03*
D16*
X121920000Y-91440000D03*
%TD*%
%TO.C,4148*%
X121920000Y-95250000D03*
D15*
X111760000Y-95250000D03*
%TD*%
D16*
%TO.C,4148*%
X121920000Y-136652000D03*
D15*
X111760000Y-136652000D03*
%TD*%
%TO.C,4148*%
X111760000Y-140716000D03*
D16*
X121920000Y-140716000D03*
%TD*%
D17*
%TO.C,J1*%
X107188000Y-33274000D03*
X103378000Y-33274000D03*
%TD*%
%TO.C,J2*%
X107188000Y-41910000D03*
X103378000Y-41910000D03*
%TD*%
%TO.C,J3*%
X105436000Y-62484000D03*
X105156000Y-58674000D03*
X105156000Y-66294000D03*
%TD*%
%TO.C,J4*%
X105156000Y-75946000D03*
X105156000Y-72136000D03*
%TD*%
%TO.C,J5*%
X105410000Y-99568000D03*
X105410000Y-91948000D03*
X105690000Y-95758000D03*
%TD*%
%TO.C,J6*%
X105410000Y-105410000D03*
X105410000Y-109220000D03*
%TD*%
%TO.C,J7*%
X105690000Y-140970000D03*
X105410000Y-137160000D03*
X105410000Y-144780000D03*
%TD*%
%TO.C,J8*%
X105410000Y-154940000D03*
X105410000Y-151130000D03*
%TD*%
D18*
%TO.C,BS170*%
X139192000Y-33020000D03*
X139192000Y-34290000D03*
D19*
X139192000Y-31750000D03*
%TD*%
%TO.C,BS170*%
X139700000Y-60960000D03*
D18*
X139700000Y-58420000D03*
X139700000Y-59690000D03*
%TD*%
%TO.C,BS170*%
X139700000Y-100330000D03*
X139700000Y-99060000D03*
D19*
X139700000Y-101600000D03*
%TD*%
%TO.C,BS170*%
X139700000Y-141224000D03*
D18*
X139700000Y-138684000D03*
X139700000Y-139954000D03*
%TD*%
D13*
%TO.C,10M*%
X132842000Y-31000000D03*
D20*
X125222000Y-31000000D03*
%TD*%
%TO.C,10M*%
X132842000Y-35000000D03*
D13*
X125222000Y-35000000D03*
%TD*%
%TO.C,5K1*%
X125222000Y-38862000D03*
D20*
X132842000Y-38862000D03*
%TD*%
D13*
%TO.C,100K*%
X143256000Y-38862000D03*
D20*
X135636000Y-38862000D03*
%TD*%
D13*
%TO.C,10M*%
X125730000Y-58420000D03*
D20*
X133350000Y-58420000D03*
%TD*%
%TO.C,10M*%
X133350000Y-62230000D03*
D13*
X125730000Y-62230000D03*
%TD*%
%TO.C,5K1*%
X125730000Y-66040000D03*
D20*
X133350000Y-66040000D03*
%TD*%
D13*
%TO.C,100K*%
X125730000Y-69850000D03*
D20*
X133350000Y-69850000D03*
%TD*%
%TO.C,10M*%
X133096000Y-91694000D03*
D13*
X125476000Y-91694000D03*
%TD*%
%TO.C,10M*%
X125476000Y-95250000D03*
D20*
X133096000Y-95250000D03*
%TD*%
D13*
%TO.C,5K1*%
X125476000Y-99060000D03*
D20*
X133096000Y-99060000D03*
%TD*%
%TO.C,100K*%
X133096000Y-103124000D03*
D13*
X125476000Y-103124000D03*
%TD*%
D20*
%TO.C,10M*%
X132588000Y-136652000D03*
D13*
X124968000Y-136652000D03*
%TD*%
D20*
%TO.C,10M*%
X132588000Y-140716000D03*
D13*
X124968000Y-140716000D03*
%TD*%
D20*
%TO.C,5K1*%
X132588000Y-144272000D03*
D13*
X124968000Y-144272000D03*
%TD*%
D20*
%TO.C,100K*%
X132588000Y-147828000D03*
D13*
X124968000Y-147828000D03*
%TD*%
D21*
%TO.C,RV1*%
X153000000Y-33000000D03*
X153000000Y-38000000D03*
X153000000Y-43000000D03*
%TD*%
%TO.C,RV2*%
X153000000Y-69000000D03*
X153000000Y-74000000D03*
X153000000Y-79000000D03*
%TD*%
%TO.C,RV3*%
X153000000Y-115000000D03*
X153000000Y-110000000D03*
X153000000Y-105000000D03*
%TD*%
%TO.C,RV4*%
X153000000Y-151000000D03*
X153000000Y-146000000D03*
X153000000Y-141000000D03*
%TD*%
M02*
