M48
; DRILL file {KiCad (5.1.10)-1} date 04/21/22 20:11:46
; FORMAT={-:-/ absolute / inch / decimal}
; #@! TF.CreationDate,2022-04-21T20:11:46-04:00
; #@! TF.GenerationSoftware,Kicad,Pcbnew,(5.1.10)-1
FMAT,2
INCH
T1C0.0276
T2C0.0295
T3C0.0315
T4C0.0394
T5C0.0433
T6C0.0512
T7C0.0551
%
G90
G05
T1
X4.3916Y-1.53
X4.4Y-2.6
X4.4Y-3.9
X4.4Y-5.7
X4.49Y-1.53
X4.4984Y-2.6
X4.4984Y-3.9
X4.4984Y-5.7
T2
X5.48Y-1.25
X5.48Y-1.3
X5.48Y-1.35
X5.5Y-2.3
X5.5Y-2.35
X5.5Y-2.4
X5.5Y-3.9
X5.5Y-3.95
X5.5Y-4.0
X5.5Y-5.46
X5.5Y-5.51
X5.5Y-5.56
T3
X4.58Y-5.9216
X4.58Y-6.02
X4.62Y-4.1616
X4.62Y-4.26
X4.7Y-2.7016
X4.7Y-2.8
X4.71Y-1.5416
X4.71Y-1.64
X4.92Y-5.38
X4.92Y-5.54
X4.92Y-5.68
X4.92Y-5.82
X4.93Y-1.2205
X4.93Y-1.378
X4.93Y-1.53
X4.94Y-3.61
X4.94Y-3.75
X4.94Y-3.9
X4.94Y-4.06
X4.95Y-2.3
X4.95Y-2.45
X4.95Y-2.6
X4.95Y-2.75
X5.22Y-5.38
X5.22Y-5.54
X5.22Y-5.68
X5.22Y-5.82
X5.23Y-1.2205
X5.23Y-1.378
X5.23Y-1.53
X5.24Y-3.61
X5.24Y-3.75
X5.24Y-3.9
X5.24Y-4.06
X5.25Y-2.3
X5.25Y-2.45
X5.25Y-2.6
X5.25Y-2.75
X5.34Y-1.53
X5.64Y-1.53
T4
X5.03Y-6.08
X5.03Y-6.18
X5.13Y-6.08
X5.13Y-6.18
X5.23Y-6.08
X5.23Y-6.18
X5.33Y-6.08
X5.33Y-6.18
X5.43Y-6.08
X5.43Y-6.18
T5
X4.4Y-1.22
X4.4Y-2.3
X4.4Y-2.45
X4.4Y-3.6
X4.4Y-3.75
X4.4Y-5.38
X4.4Y-5.54
X4.4031Y-1.378
X4.8Y-1.22
X4.8Y-2.3
X4.8Y-2.45
X4.8Y-3.6
X4.8Y-3.75
X4.8Y-5.38
X4.8Y-5.54
X4.8031Y-1.378
T6
X6.0236Y-1.2992
X6.0236Y-1.4961
X6.0236Y-1.6929
X6.0236Y-2.7165
X6.0236Y-2.9134
X6.0236Y-3.1102
X6.0236Y-4.1339
X6.0236Y-4.3307
X6.0236Y-4.5276
X6.0236Y-5.5512
X6.0236Y-5.748
X6.0236Y-5.9449
T7
X4.07Y-1.31
X4.07Y-1.65
X4.14Y-2.31
X4.14Y-2.61
X4.14Y-2.84
X4.14Y-2.99
X4.15Y-3.62
X4.15Y-3.92
X4.15Y-4.15
X4.15Y-4.3
X4.15Y-5.4
X4.15Y-5.7
X4.15Y-5.95
X4.15Y-6.1
X4.151Y-2.46
X4.161Y-3.77
X4.161Y-5.55
X4.22Y-1.31
X4.22Y-1.65
T0
M30
